<svg xmlns="http://www.w3.org/2000/svg" xmlns:xlink="http://www.w3.org/1999/xlink" width="500" zoomAndPan="magnify" viewBox="0 0 375 374.999991" height="500" preserveAspectRatio="xMidYMid meet" version="1.0"><defs><clipPath id="af7d3e9e92"><path d="M 37.5 111 L 337.5 111 L 337.5 304.75 L 37.5 304.75 Z M 37.5 111 " clip-rule="nonzero"/></clipPath><clipPath id="90e2494338"><path d="M 37.5 70 L 337.5 70 L 337.5 105 L 37.5 105 Z M 37.5 70 " clip-rule="nonzero"/></clipPath></defs><g clip-path="url(#af7d3e9e92)"><path fill="#e11d48" d="M 37.523438 111.335938 L 37.523438 294.160156 C 37.523438 300.125 42.394531 304.996094 48.421875 304.996094 L 326.578125 304.996094 C 332.546875 304.996094 337.476562 300.125 337.476562 294.097656 L 337.476562 111.335938 Z M 37.523438 111.335938 " fill-opacity="1" fill-rule="nonzero"/></g><path fill="#ffffff" d="M 167.195312 243.691406 L 113.5625 220.375 L 113.5625 207.464844 L 167.195312 184.269531 L 167.195312 199.492188 L 129.753906 213.796875 L 167.195312 228.652344 Z M 167.195312 243.691406 " fill-opacity="1" fill-rule="nonzero"/><path fill="#ffffff" d="M 172.128906 253.917969 L 191.546875 173.007812 L 202.8125 173.007812 L 183.207031 253.917969 Z M 172.128906 253.917969 " fill-opacity="1" fill-rule="nonzero"/><path fill="#ffffff" d="M 207.742188 243.75 L 207.742188 228.652344 L 245.183594 213.917969 L 207.742188 199.371094 L 207.742188 184.394531 L 261.4375 207.589844 L 261.4375 220.375 Z M 207.742188 243.75 " fill-opacity="1" fill-rule="nonzero"/><g clip-path="url(#90e2494338)"><path fill="#e11d48" d="M 337.476562 80.898438 C 337.476562 74.929688 332.605469 70 326.578125 70 L 48.421875 70 C 42.394531 70 37.523438 74.871094 37.523438 80.898438 L 37.523438 104.03125 L 337.476562 104.03125 Z M 337.476562 80.898438 " fill-opacity="1" fill-rule="nonzero"/></g><path fill="#ffffff" d="M 68.570312 93.132812 L 55.96875 93.132812 C 53.839844 93.132812 52.074219 91.367188 52.074219 89.238281 L 52.074219 85.464844 C 52.074219 83.332031 53.839844 81.566406 55.96875 81.566406 L 68.570312 81.566406 C 70.703125 81.566406 72.46875 83.332031 72.46875 85.464844 L 72.46875 89.238281 C 72.46875 91.367188 70.703125 93.132812 68.570312 93.132812 Z M 68.570312 93.132812 " fill-opacity="1" fill-rule="nonzero"/><path fill="#ffffff" d="M 94.261719 93.132812 L 81.660156 93.132812 C 79.53125 93.132812 77.765625 91.367188 77.765625 89.238281 L 77.765625 85.464844 C 77.765625 83.332031 79.53125 81.566406 81.660156 81.566406 L 94.261719 81.566406 C 96.394531 81.566406 98.160156 83.332031 98.160156 85.464844 L 98.160156 89.238281 C 98.160156 91.367188 96.394531 93.132812 94.261719 93.132812 Z M 94.261719 93.132812 " fill-opacity="1" fill-rule="nonzero"/><path fill="#ffffff" d="M 119.832031 93.132812 L 107.230469 93.132812 C 105.097656 93.132812 103.332031 91.367188 103.332031 89.238281 L 103.332031 85.464844 C 103.332031 83.332031 105.097656 81.566406 107.230469 81.566406 L 119.832031 81.566406 C 121.960938 81.566406 123.726562 83.332031 123.726562 85.464844 L 123.726562 89.238281 C 123.726562 91.367188 121.960938 93.132812 119.832031 93.132812 Z M 119.832031 93.132812 " fill-opacity="1" fill-rule="nonzero"/></svg>