<svg xmlns="http://www.w3.org/2000/svg" xmlns:xlink="http://www.w3.org/1999/xlink" width="500" zoomAndPan="magnify" viewBox="0 0 375 374.999991" height="500" preserveAspectRatio="xMidYMid meet" version="1.0"><defs><clipPath id="c90528ebb3"><path d="M 122.921875 154 L 251.921875 154 L 251.921875 238.164062 L 122.921875 238.164062 Z M 122.921875 154 " clip-rule="nonzero"/></clipPath><clipPath id="4b0a35b46f"><path d="M 122.921875 136.914062 L 251.921875 136.914062 L 251.921875 152 L 122.921875 152 Z M 122.921875 136.914062 " clip-rule="nonzero"/></clipPath><clipPath id="ac67f5312e"><path d="M 37.5 56.449219 L 118.5 56.449219 L 118.5 137.449219 L 37.5 137.449219 Z M 37.5 56.449219 " clip-rule="nonzero"/></clipPath><clipPath id="0d34c7aaee"><path d="M 37.5 181.445312 L 118.5 181.445312 L 118.5 262.445312 L 37.5 262.445312 Z M 37.5 181.445312 " clip-rule="nonzero"/></clipPath><clipPath id="dcd34732ed"><path d="M 256.636719 256.636719 L 337.636719 256.636719 L 337.636719 337.636719 L 256.636719 337.636719 Z M 256.636719 256.636719 " clip-rule="nonzero"/></clipPath><clipPath id="998e05aadd"><path d="M 256.636719 75.308594 L 337.636719 75.308594 L 337.636719 156.308594 L 256.636719 156.308594 Z M 256.636719 75.308594 " clip-rule="nonzero"/></clipPath><clipPath id="ddde6f4f23"><path d="M 140.386719 37.5 L 221.386719 37.5 L 221.386719 118.5 L 140.386719 118.5 Z M 140.386719 37.5 " clip-rule="nonzero"/></clipPath><clipPath id="cafd55d2c2"><path d="M 117.898438 256.636719 L 198.898438 256.636719 L 198.898438 337.636719 L 117.898438 337.636719 Z M 117.898438 256.636719 " clip-rule="nonzero"/></clipPath></defs><g clip-path="url(#c90528ebb3)"><path fill="#e11d48" d="M 122.933594 154.710938 L 122.933594 233.417969 C 122.933594 235.984375 125.027344 238.082031 127.625 238.082031 L 247.375 238.082031 C 249.941406 238.082031 252.066406 235.984375 252.066406 233.390625 L 252.066406 154.710938 Z M 122.933594 154.710938 " fill-opacity="1" fill-rule="nonzero"/></g><path fill="#ffffff" d="M 178.757812 211.691406 L 155.667969 201.652344 L 155.667969 196.09375 L 178.757812 186.109375 L 178.757812 192.660156 L 162.640625 198.820312 L 178.757812 205.214844 Z M 178.757812 211.691406 " fill-opacity="1" fill-rule="nonzero"/><path fill="#ffffff" d="M 180.882812 216.09375 L 189.242188 181.261719 L 194.089844 181.261719 L 185.652344 216.09375 Z M 180.882812 216.09375 " fill-opacity="1" fill-rule="nonzero"/><path fill="#ffffff" d="M 196.214844 211.714844 L 196.214844 205.214844 L 212.332031 198.875 L 196.214844 192.609375 L 196.214844 186.160156 L 219.332031 196.148438 L 219.332031 201.652344 Z M 196.214844 211.714844 " fill-opacity="1" fill-rule="nonzero"/><g clip-path="url(#4b0a35b46f)"><path fill="#e11d48" d="M 252.066406 141.605469 C 252.066406 139.039062 249.96875 136.914062 247.375 136.914062 L 127.625 136.914062 C 125.027344 136.914062 122.933594 139.011719 122.933594 141.605469 L 122.933594 151.566406 L 252.066406 151.566406 Z M 252.066406 141.605469 " fill-opacity="1" fill-rule="nonzero"/></g><path fill="#ffffff" d="M 136.300781 146.875 L 130.875 146.875 C 129.957031 146.875 129.195312 146.113281 129.195312 145.195312 L 129.195312 143.570312 C 129.195312 142.65625 129.957031 141.894531 130.875 141.894531 L 136.300781 141.894531 C 137.214844 141.894531 137.976562 142.65625 137.976562 143.570312 L 137.976562 145.195312 C 137.976562 146.113281 137.214844 146.875 136.300781 146.875 Z M 136.300781 146.875 " fill-opacity="1" fill-rule="nonzero"/><path fill="#ffffff" d="M 147.359375 146.875 L 141.933594 146.875 C 141.015625 146.875 140.257812 146.113281 140.257812 145.195312 L 140.257812 143.570312 C 140.257812 142.65625 141.015625 141.894531 141.933594 141.894531 L 147.359375 141.894531 C 148.277344 141.894531 149.035156 142.65625 149.035156 143.570312 L 149.035156 145.195312 C 149.035156 146.113281 148.277344 146.875 147.359375 146.875 Z M 147.359375 146.875 " fill-opacity="1" fill-rule="nonzero"/><path fill="#ffffff" d="M 158.367188 146.875 L 152.941406 146.875 C 152.023438 146.875 151.265625 146.113281 151.265625 145.195312 L 151.265625 143.570312 C 151.265625 142.65625 152.023438 141.894531 152.941406 141.894531 L 158.367188 141.894531 C 159.285156 141.894531 160.042969 142.65625 160.042969 143.570312 L 160.042969 145.195312 C 160.042969 146.113281 159.285156 146.875 158.367188 146.875 Z M 158.367188 146.875 " fill-opacity="1" fill-rule="nonzero"/><path stroke-linecap="butt" transform="matrix(0.700308, 0.268457, -0.268457, 0.700308, 188.036872, 236.685102)" fill="none" stroke-linejoin="miter" d="M 0.000156687 2.000254 L 116.952996 2.002608 " stroke="#e11d48" stroke-width="4" stroke-opacity="1" stroke-miterlimit="4"/><path stroke-linecap="round" transform="matrix(0.700308, 0.268457, -0.268457, 0.700308, 188.036872, 236.685102)" fill="none" stroke-linejoin="round" d="M 108.956294 -4.0016 L 116.952996 2.002608 L 108.956053 8.002144 " stroke="#e11d48" stroke-width="4" stroke-opacity="1" stroke-miterlimit="4"/><path stroke-linecap="butt" transform="matrix(-0.553302, 0.506317, -0.506317, -0.553302, 123.927462, 188.609695)" fill="none" stroke-linejoin="miter" d="M 0.00148778 1.999887 L 26.057532 2.002065 " stroke="#e11d48" stroke-width="4" stroke-opacity="1" stroke-miterlimit="4"/><path stroke-linecap="round" transform="matrix(-0.553302, 0.506317, -0.506317, -0.553302, 123.927462, 188.609695)" fill="none" stroke-linejoin="round" d="M 18.057242 -3.998656 L 26.057532 2.002065 L 18.058302 7.99706 " stroke="#e11d48" stroke-width="4" stroke-opacity="1" stroke-miterlimit="4"/><path fill="#e64c6e" d="M 181.191406 74.785156 L 184.097656 75.527344 L 183.355469 78.433594 L 180.449219 77.691406 M 187.003906 76.269531 L 189.910156 77.007812 L 189.167969 79.917969 L 186.261719 79.175781 M 192.816406 77.75 L 195.722656 78.492188 L 194.980469 81.398438 L 192.074219 80.65625 M 198.628906 79.234375 L 201.539062 79.976562 L 200.796875 82.882812 L 197.890625 82.140625 M 204.445312 80.71875 L 207.351562 81.460938 L 206.609375 84.367188 L 203.703125 83.625 M 210.257812 82.199219 L 213.164062 82.941406 L 212.421875 85.847656 L 209.515625 85.109375 M 216.070312 83.683594 L 218.980469 84.425781 L 218.238281 87.332031 L 215.332031 86.589844 M 221.886719 85.167969 L 224.792969 85.910156 L 224.050781 88.816406 L 221.144531 88.074219 M 227.699219 86.652344 L 230.605469 87.390625 L 229.863281 90.300781 L 226.957031 89.558594 M 233.511719 88.132812 L 236.421875 88.875 L 235.679688 91.78125 L 232.773438 91.039062 M 239.328125 89.617188 L 242.234375 90.359375 L 241.492188 93.265625 L 238.585938 92.523438 M 245.140625 91.101562 L 248.046875 91.84375 L 247.304688 94.75 L 244.398438 94.007812 M 250.953125 92.582031 L 253.863281 93.324219 L 253.121094 96.230469 L 250.214844 95.492188 M 256.769531 94.066406 L 259.675781 94.808594 L 258.933594 97.714844 L 256.027344 96.972656 M 262.582031 95.550781 L 265.488281 96.292969 L 264.746094 99.199219 L 261.839844 98.457031 M 268.394531 97.03125 L 271.304688 97.773438 L 270.5625 100.683594 L 267.65625 99.941406 M 274.210938 98.515625 L 277.117188 99.257812 L 276.375 102.164062 L 273.46875 101.421875 M 280.023438 100 L 282.929688 100.742188 L 282.1875 103.648438 L 279.28125 102.90625 M 285.835938 101.484375 L 288.746094 102.222656 L 288.003906 105.132812 L 285.097656 104.390625 M 291.652344 102.964844 L 294.558594 103.707031 L 293.816406 106.613281 L 290.910156 105.871094 M 297.464844 104.449219 L 300.371094 105.191406 L 299.628906 108.097656 L 296.722656 107.355469 " fill-opacity="1" fill-rule="nonzero"/><path stroke-linecap="round" transform="matrix(0.726722, 0.185405, -0.185405, 0.726722, 181.189519, 74.784605)" fill="none" stroke-linejoin="round" d="M 159.323539 -3.998707 L 167.325892 2.000941 L 159.325748 7.998093 " stroke="#e64c6e" stroke-width="4" stroke-opacity="1" stroke-miterlimit="4"/><path fill="#e64c6e" d="M 324.03125 148.589844 L 321.417969 150.066406 L 319.941406 147.453125 L 322.554688 145.980469 M 318.804688 151.542969 L 316.195312 153.015625 L 314.71875 150.40625 L 317.332031 148.929688 M 313.582031 154.492188 L 310.96875 155.96875 L 309.492188 153.355469 L 312.105469 151.878906 M 308.355469 157.441406 L 305.746094 158.917969 L 304.269531 156.304688 L 306.882812 154.828125 M 303.132812 160.390625 L 300.519531 161.867188 L 299.042969 159.253906 L 301.65625 157.78125 M 297.90625 163.34375 L 295.296875 164.816406 L 293.820312 162.203125 L 296.433594 160.730469 M 292.683594 166.292969 L 290.070312 167.765625 L 288.59375 165.15625 L 291.207031 163.679688 M 287.457031 169.242188 L 284.847656 170.71875 L 283.371094 168.105469 L 285.984375 166.628906 M 282.234375 172.191406 L 279.621094 173.667969 L 278.144531 171.054688 L 280.757812 169.582031 M 277.007812 175.144531 L 274.394531 176.617188 L 272.921875 174.003906 L 275.535156 172.53125 M 271.785156 178.09375 L 269.171875 179.566406 L 267.695312 176.957031 L 270.308594 175.480469 M 266.558594 181.042969 L 263.945312 182.519531 L 262.472656 179.90625 L 265.085938 178.429688 M 261.335938 183.992188 L 258.722656 185.46875 L 257.246094 182.855469 L 259.859375 181.378906 M 256.109375 186.941406 L 254.113281 188.070312 L 252.636719 185.457031 L 254.636719 184.332031 " fill-opacity="1" fill-rule="nonzero"/><path stroke-linecap="round" transform="matrix(-0.653079, 0.368765, -0.368765, -0.653079, 324.030482, 148.591514)" fill="none" stroke-linejoin="round" d="M 99.059321 -4.001416 L 107.059383 1.999226 L 99.058119 8.002339 " stroke="#e64c6e" stroke-width="4" stroke-opacity="1" stroke-miterlimit="4"/><path fill="#e64c6e" d="M 94.363281 92.136719 L 97.304688 91.539062 L 97.898438 94.480469 L 94.960938 95.074219 M 100.246094 90.945312 L 103.1875 90.351562 L 103.78125 93.289062 L 100.839844 93.886719 M 106.125 89.753906 L 109.066406 89.160156 L 109.660156 92.101562 L 106.722656 92.695312 M 112.007812 88.566406 L 114.949219 87.96875 L 115.542969 90.910156 L 112.601562 91.503906 M 117.886719 87.375 L 120.828125 86.78125 L 121.421875 89.722656 L 118.484375 90.316406 M 123.769531 86.183594 L 126.710938 85.589844 L 127.304688 88.53125 L 124.363281 89.125 M 129.648438 84.996094 L 132.589844 84.402344 L 133.183594 87.339844 L 130.246094 87.9375 M 135.53125 83.804688 L 138.472656 83.210938 L 139.066406 86.152344 L 136.125 86.746094 M 141.410156 82.617188 L 141.519531 82.59375 L 142.113281 85.535156 L 142.007812 85.554688 " fill-opacity="1" fill-rule="nonzero"/><path stroke-linecap="round" transform="matrix(0.735103, -0.148738, 0.148738, 0.735103, 94.364648, 92.134856)" fill="none" stroke-linejoin="round" d="M 56.146114 -3.999515 L 64.146874 1.997961 L 56.146755 7.999351 " stroke="#e64c6e" stroke-width="4" stroke-opacity="1" stroke-miterlimit="4"/><path stroke-linecap="butt" transform="matrix(-0.709225, -0.243925, 0.243925, -0.709225, 180.31974, 119.779387)" fill="none" stroke-linejoin="miter" d="M -0.00058935 2.002403 L 86.063364 2.001068 " stroke="#e11d48" stroke-width="4" stroke-opacity="1" stroke-miterlimit="4"/><path stroke-linecap="round" transform="matrix(-0.709225, -0.243925, 0.243925, -0.709225, 180.31974, 119.779387)" fill="none" stroke-linejoin="round" d="M 78.06238 -3.998989 L 86.063364 2.001068 L 78.06448 8.001719 " stroke="#e11d48" stroke-width="4" stroke-opacity="1" stroke-miterlimit="4"/><path fill="#e64c6e" d="M 162.777344 116.453125 L 161.359375 119.097656 L 158.714844 117.679688 L 160.136719 115.035156 M 159.9375 121.742188 L 158.519531 124.382812 L 155.875 122.964844 L 157.296875 120.320312 M 157.101562 127.027344 L 155.679688 129.667969 L 153.039062 128.25 L 154.457031 125.605469 M 154.261719 132.3125 L 152.84375 134.957031 L 150.199219 133.535156 L 151.617188 130.894531 M 151.421875 137.597656 L 150.003906 140.242188 L 147.359375 138.820312 L 148.78125 136.179688 M 148.582031 142.882812 L 147.164062 145.527344 L 144.519531 144.109375 L 145.941406 141.464844 M 145.746094 148.171875 L 144.324219 150.8125 L 141.683594 149.394531 L 143.101562 146.75 M 142.90625 153.457031 L 141.488281 156.097656 L 138.84375 154.679688 L 140.261719 152.035156 M 140.066406 158.742188 L 138.648438 161.386719 L 136.003906 159.964844 L 137.425781 157.324219 M 137.226562 164.027344 L 135.808594 166.671875 L 133.164062 165.25 L 134.585938 162.609375 M 134.390625 169.3125 L 132.96875 171.957031 L 130.328125 170.539062 L 131.746094 167.894531 M 131.550781 174.597656 L 130.132812 177.242188 L 127.488281 175.824219 L 128.90625 173.179688 M 128.710938 179.886719 L 127.292969 182.527344 L 124.648438 181.109375 L 126.070312 178.464844 M 125.871094 185.171875 L 124.949219 186.890625 L 122.304688 185.472656 L 123.230469 183.753906 " fill-opacity="1" fill-rule="nonzero"/><path stroke-linecap="round" transform="matrix(-0.354858, 0.660739, -0.660739, -0.354858, 162.777855, 116.454602)" fill="none" stroke-linejoin="round" d="M 98.601994 -3.997922 L 106.599809 1.999441 L 98.603088 8.002739 " stroke="#e64c6e" stroke-width="4" stroke-opacity="1" stroke-miterlimit="4"/><path stroke-linecap="butt" transform="matrix(-0.0820859, -0.745494, 0.745494, -0.0820859, 186.008299, 137.078077)" fill="none" stroke-linejoin="miter" d="M -0.000312896 2.000921 L 79.393668 1.997692 " stroke="#e11d48" stroke-width="4" stroke-opacity="1" stroke-miterlimit="4"/><path stroke-linecap="round" transform="matrix(-0.0820859, -0.745494, 0.745494, -0.0820859, 186.008299, 137.078077)" fill="none" stroke-linejoin="round" d="M 71.392373 -3.997382 L 79.393668 1.997692 L 71.391595 8.001701 " stroke="#e11d48" stroke-width="4" stroke-opacity="1" stroke-miterlimit="4"/><g clip-path="url(#ac67f5312e)"><path fill="#e6e6e6" d="M 77.914062 56.449219 L 77.945312 56.449219 C 79.269531 56.449219 80.589844 56.515625 81.90625 56.644531 C 83.222656 56.773438 84.53125 56.96875 85.828125 57.226562 C 87.128906 57.484375 88.410156 57.808594 89.675781 58.191406 C 90.941406 58.574219 92.1875 59.019531 93.410156 59.527344 C 94.632812 60.035156 95.828125 60.597656 96.996094 61.222656 C 98.164062 61.847656 99.296875 62.527344 100.398438 63.261719 C 101.5 63.996094 102.558594 64.785156 103.582031 65.625 C 104.605469 66.464844 105.585938 67.351562 106.523438 68.289062 C 107.457031 69.222656 108.347656 70.203125 109.1875 71.226562 C 110.023438 72.25 110.8125 73.3125 111.546875 74.414062 C 112.285156 75.511719 112.964844 76.648438 113.585938 77.8125 C 114.210938 78.980469 114.777344 80.175781 115.28125 81.398438 C 115.789062 82.621094 116.234375 83.867188 116.617188 85.132812 C 117.003906 86.398438 117.324219 87.683594 117.582031 88.980469 C 117.839844 90.277344 118.035156 91.585938 118.164062 92.902344 C 118.292969 94.222656 118.359375 95.542969 118.359375 96.867188 L 118.359375 96.894531 C 118.359375 98.21875 118.292969 99.539062 118.164062 100.855469 C 118.035156 102.175781 117.839844 103.480469 117.582031 104.78125 C 117.324219 106.078125 117.003906 107.359375 116.617188 108.628906 C 116.234375 109.894531 115.789062 111.140625 115.28125 112.363281 C 114.777344 113.585938 114.210938 114.78125 113.585938 115.945312 C 112.964844 117.113281 112.285156 118.25 111.546875 119.347656 C 110.8125 120.449219 110.023438 121.511719 109.1875 122.535156 C 108.347656 123.558594 107.457031 124.535156 106.523438 125.472656 C 105.585938 126.410156 104.605469 127.296875 103.582031 128.136719 C 102.558594 128.976562 101.5 129.765625 100.398438 130.5 C 99.296875 131.234375 98.164062 131.914062 96.996094 132.539062 C 95.828125 133.160156 94.632812 133.726562 93.410156 134.234375 C 92.1875 134.742188 90.941406 135.1875 89.675781 135.570312 C 88.410156 135.953125 87.128906 136.277344 85.828125 136.535156 C 84.53125 136.792969 83.222656 136.984375 81.90625 137.117188 C 80.589844 137.246094 79.269531 137.308594 77.945312 137.308594 L 77.914062 137.308594 C 76.589844 137.308594 75.269531 137.246094 73.953125 137.117188 C 72.636719 136.984375 71.328125 136.792969 70.03125 136.535156 C 68.730469 136.277344 67.449219 135.953125 66.183594 135.570312 C 64.917969 135.1875 63.671875 134.742188 62.449219 134.234375 C 61.226562 133.726562 60.03125 133.160156 58.863281 132.539062 C 57.695312 131.914062 56.5625 131.234375 55.460938 130.5 C 54.359375 129.765625 53.300781 128.976562 52.277344 128.136719 C 51.253906 127.296875 50.273438 126.410156 49.335938 125.472656 C 48.402344 124.535156 47.511719 123.558594 46.671875 122.535156 C 45.832031 121.511719 45.046875 120.449219 44.3125 119.347656 C 43.574219 118.25 42.894531 117.113281 42.273438 115.945312 C 41.648438 114.78125 41.082031 113.585938 40.578125 112.363281 C 40.070312 111.140625 39.625 109.894531 39.242188 108.628906 C 38.855469 107.359375 38.535156 106.078125 38.277344 104.78125 C 38.019531 103.480469 37.824219 102.175781 37.695312 100.855469 C 37.566406 99.539062 37.5 98.21875 37.5 96.894531 L 37.5 96.867188 C 37.5 95.542969 37.566406 94.222656 37.695312 92.902344 C 37.824219 91.585938 38.019531 90.277344 38.277344 88.980469 C 38.535156 87.683594 38.855469 86.398438 39.242188 85.132812 C 39.625 83.867188 40.070312 82.621094 40.578125 81.398438 C 41.082031 80.175781 41.648438 78.980469 42.273438 77.8125 C 42.894531 76.648438 43.574219 75.511719 44.3125 74.414062 C 45.046875 73.3125 45.832031 72.25 46.671875 71.226562 C 47.511719 70.203125 48.402344 69.222656 49.335938 68.289062 C 50.273438 67.351562 51.253906 66.464844 52.277344 65.625 C 53.300781 64.785156 54.359375 63.996094 55.460938 63.261719 C 56.5625 62.527344 57.695312 61.847656 58.863281 61.222656 C 60.03125 60.597656 61.226562 60.035156 62.449219 59.527344 C 63.671875 59.019531 64.917969 58.574219 66.183594 58.191406 C 67.449219 57.808594 68.730469 57.484375 70.03125 57.226562 C 71.328125 56.96875 72.636719 56.773438 73.953125 56.644531 C 75.269531 56.515625 76.589844 56.449219 77.914062 56.449219 Z M 77.914062 56.449219 " fill-opacity="1" fill-rule="evenodd"/></g><path fill="#e64c6e" d="M 86.523438 112.449219 L 95.4375 112.449219 C 97.316406 112.449219 98.863281 113.996094 98.863281 115.90625 C 98.863281 117.785156 97.316406 119.332031 95.4375 119.332031 L 86.523438 119.332031 C 86.101562 120.757812 84.765625 121.757812 83.25 121.757812 L 72.609375 121.757812 C 71.0625 121.757812 69.757812 120.757812 69.304688 119.332031 L 60.421875 119.332031 C 58.511719 119.332031 56.964844 117.785156 56.964844 115.90625 C 56.964844 113.996094 58.511719 112.449219 60.421875 112.449219 L 69.304688 112.449219 C 69.730469 111.113281 70.910156 110.175781 72.304688 110.054688 L 54.601562 110.054688 C 51.597656 110.054688 49.113281 107.566406 49.113281 104.566406 C 49.113281 95.53125 49.113281 86.496094 49.113281 77.492188 C 49.113281 74.460938 51.597656 72.003906 54.601562 72.003906 L 101.230469 72.003906 C 104.261719 72.003906 106.71875 74.460938 106.71875 77.492188 C 106.71875 86.496094 106.71875 95.53125 106.71875 104.566406 C 106.71875 107.566406 104.261719 110.054688 101.230469 110.054688 L 83.554688 110.054688 C 84.949219 110.175781 86.128906 111.113281 86.523438 112.449219 Z M 86.523438 112.449219 " fill-opacity="1" fill-rule="evenodd"/><path fill="#fefefe" d="M 86.128906 112.964844 L 95.4375 112.964844 C 97.046875 112.964844 98.378906 114.269531 98.378906 115.90625 C 98.378906 117.511719 97.046875 118.816406 95.4375 118.816406 L 86.128906 118.816406 C 85.886719 120.210938 84.707031 121.242188 83.25 121.242188 L 72.609375 121.242188 C 71.152344 121.242188 69.941406 120.210938 69.699219 118.816406 L 60.421875 118.816406 C 58.785156 118.816406 57.480469 117.511719 57.480469 115.90625 C 57.480469 114.269531 58.785156 112.964844 60.421875 112.964844 L 69.699219 112.964844 C 69.941406 111.570312 71.152344 110.539062 72.609375 110.539062 L 75.003906 110.539062 L 75.003906 109.539062 L 54.601562 109.539062 C 51.871094 109.539062 49.628906 107.292969 49.628906 104.566406 C 49.628906 94.652344 49.628906 87.375 49.628906 77.492188 C 49.628906 74.734375 51.871094 72.488281 54.601562 72.488281 L 101.230469 72.488281 C 103.988281 72.488281 106.230469 74.734375 106.230469 77.492188 C 106.230469 87.375 106.230469 94.652344 106.230469 104.566406 C 106.230469 107.292969 103.988281 109.539062 101.230469 109.539062 L 80.855469 109.539062 L 80.855469 110.539062 L 83.25 110.539062 C 84.707031 110.539062 85.886719 111.570312 86.128906 112.964844 Z M 86.128906 112.964844 " fill-opacity="1" fill-rule="evenodd"/><path fill="#e64c6e" d="M 101.230469 89.742188 L 54.601562 89.742188 C 53.203125 89.742188 52.054688 88.589844 52.054688 87.195312 L 52.054688 77.492188 C 52.054688 76.066406 53.203125 74.914062 54.601562 74.914062 L 101.230469 74.914062 C 102.65625 74.914062 103.804688 76.066406 103.804688 77.492188 L 103.804688 87.195312 C 103.804688 88.589844 102.65625 89.742188 101.230469 89.742188 Z M 58.207031 85.707031 C 57.933594 85.707031 57.691406 85.496094 57.691406 85.191406 L 57.691406 79.460938 C 57.691406 79.191406 57.933594 78.945312 58.207031 78.945312 C 58.480469 78.945312 58.691406 79.191406 58.691406 79.460938 L 58.691406 85.191406 C 58.691406 85.496094 58.480469 85.707031 58.207031 85.707031 Z M 83.886719 82.828125 L 71.972656 82.828125 C 71.699219 82.828125 71.457031 82.617188 71.457031 82.34375 C 71.457031 82.070312 71.699219 81.828125 71.972656 81.828125 L 83.886719 81.828125 C 84.160156 81.828125 84.371094 82.070312 84.371094 82.34375 C 84.371094 82.617188 84.160156 82.828125 83.886719 82.828125 Z M 94.773438 85.707031 C 92.921875 85.707031 91.40625 84.191406 91.40625 82.34375 C 91.40625 80.464844 92.921875 78.945312 94.773438 78.945312 C 96.652344 78.945312 98.167969 80.464844 98.167969 82.34375 C 98.167969 84.191406 96.652344 85.707031 94.773438 85.707031 Z M 94.773438 79.976562 C 93.46875 79.976562 92.40625 81.039062 92.40625 82.34375 C 92.40625 83.648438 93.46875 84.707031 94.773438 84.707031 C 96.074219 84.707031 97.136719 83.648438 97.136719 82.34375 C 97.136719 81.039062 96.074219 79.976562 94.773438 79.976562 Z M 66.273438 84.617188 C 66 84.617188 65.757812 84.40625 65.757812 84.101562 L 65.757812 80.554688 C 65.757812 80.28125 66 80.039062 66.273438 80.039062 C 66.546875 80.039062 66.789062 80.28125 66.789062 80.554688 L 66.789062 84.101562 C 66.789062 84.40625 66.546875 84.617188 66.273438 84.617188 Z M 62.238281 85.707031 C 61.96875 85.707031 61.722656 85.496094 61.722656 85.191406 L 61.722656 79.460938 C 61.722656 79.191406 61.96875 78.945312 62.238281 78.945312 C 62.511719 78.945312 62.726562 79.191406 62.726562 79.460938 L 62.726562 85.191406 C 62.726562 85.496094 62.511719 85.707031 62.238281 85.707031 Z M 62.238281 85.707031 " fill-opacity="1" fill-rule="evenodd"/><path fill="#e64c6e" d="M 97.683594 93.289062 L 58.175781 93.289062 C 57.875 93.289062 57.660156 93.074219 57.660156 92.800781 L 57.660156 89.253906 C 57.660156 88.953125 57.875 88.738281 58.175781 88.738281 L 97.683594 88.738281 C 97.953125 88.738281 98.199219 88.953125 98.199219 89.253906 L 98.199219 92.800781 C 98.199219 93.074219 97.953125 93.289062 97.683594 93.289062 Z M 58.664062 92.289062 L 97.167969 92.289062 L 97.167969 89.742188 L 58.664062 89.742188 Z M 58.664062 92.289062 " fill-opacity="1" fill-rule="evenodd"/><path fill="#e64c6e" d="M 101.230469 107.113281 L 54.601562 107.113281 C 53.203125 107.113281 52.054688 105.960938 52.054688 104.566406 L 52.054688 94.835938 C 52.054688 93.4375 53.203125 92.289062 54.601562 92.289062 L 101.230469 92.289062 C 102.65625 92.289062 103.804688 93.4375 103.804688 94.835938 L 103.804688 104.566406 C 103.804688 105.960938 102.65625 107.113281 101.230469 107.113281 Z M 83.886719 100.199219 L 71.972656 100.199219 C 71.699219 100.199219 71.457031 99.988281 71.457031 99.714844 C 71.457031 99.410156 71.699219 99.199219 71.972656 99.199219 L 83.886719 99.199219 C 84.160156 99.199219 84.371094 99.410156 84.371094 99.714844 C 84.371094 99.988281 84.160156 100.199219 83.886719 100.199219 Z M 94.773438 103.082031 C 92.921875 103.082031 91.40625 101.566406 91.40625 99.714844 C 91.40625 97.835938 92.921875 96.320312 94.773438 96.320312 C 96.652344 96.320312 98.167969 97.835938 98.167969 99.714844 C 98.167969 101.566406 96.652344 103.082031 94.773438 103.082031 Z M 94.773438 97.320312 C 93.46875 97.320312 92.40625 98.382812 92.40625 99.714844 C 92.40625 101.019531 93.46875 102.082031 94.773438 102.082031 C 96.074219 102.082031 97.136719 101.019531 97.136719 99.714844 C 97.136719 98.382812 96.074219 97.320312 94.773438 97.320312 Z M 66.273438 101.988281 C 66 101.988281 65.757812 101.746094 65.757812 101.472656 L 65.757812 97.925781 C 65.757812 97.652344 66 97.410156 66.273438 97.410156 C 66.546875 97.410156 66.789062 97.652344 66.789062 97.925781 L 66.789062 101.472656 C 66.789062 101.746094 66.546875 101.988281 66.273438 101.988281 Z M 62.238281 103.082031 C 61.96875 103.082031 61.722656 102.839844 61.722656 102.566406 L 61.722656 96.835938 C 61.722656 96.5625 61.96875 96.320312 62.238281 96.320312 C 62.511719 96.320312 62.726562 96.5625 62.726562 96.835938 L 62.726562 102.566406 C 62.726562 102.839844 62.511719 103.082031 62.238281 103.082031 Z M 58.207031 103.082031 C 57.933594 103.082031 57.691406 102.839844 57.691406 102.566406 L 57.691406 96.835938 C 57.691406 96.5625 57.933594 96.320312 58.207031 96.320312 C 58.480469 96.320312 58.691406 96.5625 58.691406 96.835938 L 58.691406 102.566406 C 58.691406 102.839844 58.480469 103.082031 58.207031 103.082031 Z M 58.207031 103.082031 " fill-opacity="1" fill-rule="evenodd"/><path fill="#e64c6e" d="M 77.914062 113.964844 C 77.640625 113.964844 77.429688 113.753906 77.429688 113.449219 L 77.429688 106.597656 C 77.429688 106.324219 77.640625 106.113281 77.914062 106.113281 C 78.21875 106.113281 78.429688 106.324219 78.429688 106.597656 L 78.429688 113.449219 C 78.429688 113.753906 78.21875 113.964844 77.914062 113.964844 Z M 77.914062 113.964844 " fill-opacity="1" fill-rule="evenodd"/><path fill="#e64c6e" d="M 83.25 118.816406 L 72.609375 118.816406 C 72.335938 118.816406 72.09375 118.605469 72.09375 118.332031 L 72.09375 113.449219 C 72.09375 113.175781 72.335938 112.964844 72.609375 112.964844 L 83.25 112.964844 C 83.523438 112.964844 83.765625 113.175781 83.765625 113.449219 L 83.765625 118.332031 C 83.765625 118.605469 83.523438 118.816406 83.25 118.816406 Z M 83.25 118.816406 " fill-opacity="1" fill-rule="evenodd"/><path fill="#e64c6e" d="M 95.4375 116.390625 L 83.25 116.390625 C 82.976562 116.390625 82.734375 116.179688 82.734375 115.90625 C 82.734375 115.601562 82.976562 115.390625 83.25 115.390625 L 95.4375 115.390625 C 95.710938 115.390625 95.953125 115.601562 95.953125 115.90625 C 95.953125 116.179688 95.710938 116.390625 95.4375 116.390625 Z M 72.609375 116.390625 L 60.421875 116.390625 C 60.148438 116.390625 59.90625 116.179688 59.90625 115.90625 C 59.90625 115.601562 60.148438 115.390625 60.421875 115.390625 L 72.609375 115.390625 C 72.882812 115.390625 73.09375 115.601562 73.09375 115.90625 C 73.09375 116.179688 72.882812 116.390625 72.609375 116.390625 Z M 72.609375 116.390625 " fill-opacity="1" fill-rule="evenodd"/><g clip-path="url(#0d34c7aaee)"><path fill="#e6e6e6" d="M 77.914062 181.445312 L 77.945312 181.445312 C 79.269531 181.445312 80.589844 181.511719 81.90625 181.640625 C 83.222656 181.769531 84.53125 181.964844 85.828125 182.222656 C 87.128906 182.480469 88.410156 182.800781 89.675781 183.1875 C 90.941406 183.570312 92.1875 184.015625 93.410156 184.523438 C 94.632812 185.03125 95.828125 185.59375 96.996094 186.21875 C 98.164062 186.84375 99.296875 187.523438 100.398438 188.257812 C 101.5 188.992188 102.558594 189.78125 103.582031 190.621094 C 104.605469 191.460938 105.585938 192.347656 106.523438 193.285156 C 107.457031 194.21875 108.347656 195.199219 109.1875 196.222656 C 110.023438 197.246094 110.8125 198.308594 111.546875 199.40625 C 112.285156 200.507812 112.964844 201.644531 113.585938 202.808594 C 114.210938 203.976562 114.777344 205.171875 115.28125 206.394531 C 115.789062 207.617188 116.234375 208.863281 116.617188 210.128906 C 117.003906 211.394531 117.324219 212.679688 117.582031 213.976562 C 117.839844 215.273438 118.035156 216.582031 118.164062 217.898438 C 118.292969 219.21875 118.359375 220.539062 118.359375 221.859375 L 118.359375 221.890625 C 118.359375 223.214844 118.292969 224.535156 118.164062 225.851562 C 118.035156 227.171875 117.839844 228.476562 117.582031 229.777344 C 117.324219 231.074219 117.003906 232.355469 116.617188 233.625 C 116.234375 234.890625 115.789062 236.132812 115.28125 237.359375 C 114.777344 238.582031 114.210938 239.777344 113.585938 240.941406 C 112.964844 242.109375 112.285156 243.242188 111.546875 244.34375 C 110.8125 245.445312 110.023438 246.507812 109.1875 247.53125 C 108.347656 248.554688 107.457031 249.53125 106.523438 250.46875 C 105.585938 251.40625 104.605469 252.292969 103.582031 253.132812 C 102.558594 253.972656 101.5 254.757812 100.398438 255.496094 C 99.296875 256.230469 98.164062 256.910156 96.996094 257.535156 C 95.828125 258.15625 94.632812 258.722656 93.410156 259.230469 C 92.1875 259.734375 90.941406 260.179688 89.675781 260.566406 C 88.410156 260.949219 87.128906 261.269531 85.828125 261.53125 C 84.53125 261.789062 83.222656 261.980469 81.90625 262.113281 C 80.589844 262.242188 79.269531 262.304688 77.945312 262.304688 L 77.914062 262.304688 C 76.589844 262.304688 75.269531 262.242188 73.953125 262.113281 C 72.636719 261.980469 71.328125 261.789062 70.03125 261.53125 C 68.730469 261.269531 67.449219 260.949219 66.183594 260.566406 C 64.917969 260.179688 63.671875 259.734375 62.449219 259.230469 C 61.226562 258.722656 60.03125 258.15625 58.863281 257.535156 C 57.695312 256.910156 56.5625 256.230469 55.460938 255.496094 C 54.359375 254.757812 53.300781 253.972656 52.277344 253.132812 C 51.253906 252.292969 50.273438 251.40625 49.335938 250.46875 C 48.402344 249.53125 47.511719 248.554688 46.671875 247.53125 C 45.832031 246.507812 45.046875 245.445312 44.3125 244.34375 C 43.574219 243.242188 42.894531 242.109375 42.273438 240.941406 C 41.648438 239.777344 41.082031 238.582031 40.578125 237.359375 C 40.070312 236.132812 39.625 234.890625 39.242188 233.625 C 38.855469 232.355469 38.535156 231.074219 38.277344 229.777344 C 38.019531 228.476562 37.824219 227.171875 37.695312 225.851562 C 37.566406 224.535156 37.5 223.214844 37.5 221.890625 L 37.5 221.859375 C 37.5 220.539062 37.566406 219.21875 37.695312 217.898438 C 37.824219 216.582031 38.019531 215.273438 38.277344 213.976562 C 38.535156 212.679688 38.855469 211.394531 39.242188 210.128906 C 39.625 208.863281 40.070312 207.617188 40.578125 206.394531 C 41.082031 205.171875 41.648438 203.976562 42.273438 202.808594 C 42.894531 201.644531 43.574219 200.507812 44.3125 199.40625 C 45.046875 198.308594 45.832031 197.246094 46.671875 196.222656 C 47.511719 195.199219 48.402344 194.21875 49.335938 193.285156 C 50.273438 192.347656 51.253906 191.460938 52.277344 190.621094 C 53.300781 189.78125 54.359375 188.992188 55.460938 188.257812 C 56.5625 187.523438 57.695312 186.84375 58.863281 186.21875 C 60.03125 185.59375 61.226562 185.03125 62.449219 184.523438 C 63.671875 184.015625 64.917969 183.570312 66.183594 183.1875 C 67.449219 182.800781 68.730469 182.480469 70.03125 182.222656 C 71.328125 181.964844 72.636719 181.769531 73.953125 181.640625 C 75.269531 181.511719 76.589844 181.445312 77.914062 181.445312 Z M 77.914062 181.445312 " fill-opacity="1" fill-rule="evenodd"/></g><path fill="#e64c6e" d="M 86.523438 237.445312 L 95.4375 237.445312 C 97.316406 237.445312 98.863281 238.992188 98.863281 240.902344 C 98.863281 242.78125 97.316406 244.328125 95.4375 244.328125 L 86.523438 244.328125 C 86.101562 245.753906 84.765625 246.753906 83.25 246.753906 L 72.609375 246.753906 C 71.0625 246.753906 69.757812 245.753906 69.304688 244.328125 L 60.421875 244.328125 C 58.511719 244.328125 56.964844 242.78125 56.964844 240.902344 C 56.964844 238.992188 58.511719 237.445312 60.421875 237.445312 L 69.304688 237.445312 C 69.730469 236.109375 70.910156 235.171875 72.304688 235.050781 L 54.601562 235.050781 C 51.597656 235.050781 49.113281 232.5625 49.113281 229.5625 C 49.113281 220.527344 49.113281 211.492188 49.113281 202.488281 C 49.113281 199.457031 51.597656 197 54.601562 197 L 101.230469 197 C 104.261719 197 106.71875 199.457031 106.71875 202.488281 C 106.71875 211.492188 106.71875 220.527344 106.71875 229.5625 C 106.71875 232.5625 104.261719 235.050781 101.230469 235.050781 L 83.554688 235.050781 C 84.949219 235.171875 86.128906 236.109375 86.523438 237.445312 Z M 86.523438 237.445312 " fill-opacity="1" fill-rule="evenodd"/><path fill="#fefefe" d="M 86.128906 237.960938 L 95.4375 237.960938 C 97.046875 237.960938 98.378906 239.265625 98.378906 240.902344 C 98.378906 242.507812 97.046875 243.8125 95.4375 243.8125 L 86.128906 243.8125 C 85.886719 245.207031 84.707031 246.238281 83.25 246.238281 L 72.609375 246.238281 C 71.152344 246.238281 69.941406 245.207031 69.699219 243.8125 L 60.421875 243.8125 C 58.785156 243.8125 57.480469 242.507812 57.480469 240.902344 C 57.480469 239.265625 58.785156 237.960938 60.421875 237.960938 L 69.699219 237.960938 C 69.941406 236.566406 71.152344 235.535156 72.609375 235.535156 L 75.003906 235.535156 L 75.003906 234.535156 L 54.601562 234.535156 C 51.871094 234.535156 49.628906 232.289062 49.628906 229.5625 C 49.628906 219.648438 49.628906 212.371094 49.628906 202.488281 C 49.628906 199.730469 51.871094 197.484375 54.601562 197.484375 L 101.230469 197.484375 C 103.988281 197.484375 106.230469 199.730469 106.230469 202.488281 C 106.230469 212.371094 106.230469 219.648438 106.230469 229.5625 C 106.230469 232.289062 103.988281 234.535156 101.230469 234.535156 L 80.855469 234.535156 L 80.855469 235.535156 L 83.25 235.535156 C 84.707031 235.535156 85.886719 236.566406 86.128906 237.960938 Z M 86.128906 237.960938 " fill-opacity="1" fill-rule="evenodd"/><path fill="#e64c6e" d="M 101.230469 214.738281 L 54.601562 214.738281 C 53.203125 214.738281 52.054688 213.585938 52.054688 212.191406 L 52.054688 202.488281 C 52.054688 201.0625 53.203125 199.910156 54.601562 199.910156 L 101.230469 199.910156 C 102.65625 199.910156 103.804688 201.0625 103.804688 202.488281 L 103.804688 212.191406 C 103.804688 213.585938 102.65625 214.738281 101.230469 214.738281 Z M 58.207031 210.703125 C 57.933594 210.703125 57.691406 210.492188 57.691406 210.1875 L 57.691406 204.457031 C 57.691406 204.183594 57.933594 203.941406 58.207031 203.941406 C 58.480469 203.941406 58.691406 204.183594 58.691406 204.457031 L 58.691406 210.1875 C 58.691406 210.492188 58.480469 210.703125 58.207031 210.703125 Z M 83.886719 207.824219 L 71.972656 207.824219 C 71.699219 207.824219 71.457031 207.613281 71.457031 207.339844 C 71.457031 207.066406 71.699219 206.824219 71.972656 206.824219 L 83.886719 206.824219 C 84.160156 206.824219 84.371094 207.066406 84.371094 207.339844 C 84.371094 207.613281 84.160156 207.824219 83.886719 207.824219 Z M 94.773438 210.703125 C 92.921875 210.703125 91.40625 209.1875 91.40625 207.339844 C 91.40625 205.457031 92.921875 203.941406 94.773438 203.941406 C 96.652344 203.941406 98.167969 205.457031 98.167969 207.339844 C 98.167969 209.1875 96.652344 210.703125 94.773438 210.703125 Z M 94.773438 204.972656 C 93.46875 204.972656 92.40625 206.035156 92.40625 207.339844 C 92.40625 208.640625 93.46875 209.703125 94.773438 209.703125 C 96.074219 209.703125 97.136719 208.640625 97.136719 207.339844 C 97.136719 206.035156 96.074219 204.972656 94.773438 204.972656 Z M 66.273438 209.613281 C 66 209.613281 65.757812 209.398438 65.757812 209.097656 L 65.757812 205.550781 C 65.757812 205.277344 66 205.035156 66.273438 205.035156 C 66.546875 205.035156 66.789062 205.277344 66.789062 205.550781 L 66.789062 209.097656 C 66.789062 209.398438 66.546875 209.613281 66.273438 209.613281 Z M 62.238281 210.703125 C 61.96875 210.703125 61.722656 210.492188 61.722656 210.1875 L 61.722656 204.457031 C 61.722656 204.183594 61.96875 203.941406 62.238281 203.941406 C 62.511719 203.941406 62.726562 204.183594 62.726562 204.457031 L 62.726562 210.1875 C 62.726562 210.492188 62.511719 210.703125 62.238281 210.703125 Z M 62.238281 210.703125 " fill-opacity="1" fill-rule="evenodd"/><path fill="#e64c6e" d="M 97.683594 218.285156 L 58.175781 218.285156 C 57.875 218.285156 57.660156 218.070312 57.660156 217.796875 L 57.660156 214.25 C 57.660156 213.949219 57.875 213.734375 58.175781 213.734375 L 97.683594 213.734375 C 97.953125 213.734375 98.199219 213.949219 98.199219 214.25 L 98.199219 217.796875 C 98.199219 218.070312 97.953125 218.285156 97.683594 218.285156 Z M 58.664062 217.28125 L 97.167969 217.28125 L 97.167969 214.738281 L 58.664062 214.738281 Z M 58.664062 217.28125 " fill-opacity="1" fill-rule="evenodd"/><path fill="#e64c6e" d="M 101.230469 232.109375 L 54.601562 232.109375 C 53.203125 232.109375 52.054688 230.957031 52.054688 229.5625 L 52.054688 219.828125 C 52.054688 218.433594 53.203125 217.28125 54.601562 217.28125 L 101.230469 217.28125 C 102.65625 217.28125 103.804688 218.433594 103.804688 219.828125 L 103.804688 229.5625 C 103.804688 230.957031 102.65625 232.109375 101.230469 232.109375 Z M 83.886719 225.195312 L 71.972656 225.195312 C 71.699219 225.195312 71.457031 224.984375 71.457031 224.710938 C 71.457031 224.40625 71.699219 224.195312 71.972656 224.195312 L 83.886719 224.195312 C 84.160156 224.195312 84.371094 224.40625 84.371094 224.710938 C 84.371094 224.984375 84.160156 225.195312 83.886719 225.195312 Z M 94.773438 228.078125 C 92.921875 228.078125 91.40625 226.5625 91.40625 224.710938 C 91.40625 222.832031 92.921875 221.316406 94.773438 221.316406 C 96.652344 221.316406 98.167969 222.832031 98.167969 224.710938 C 98.167969 226.5625 96.652344 228.078125 94.773438 228.078125 Z M 94.773438 222.316406 C 93.46875 222.316406 92.40625 223.378906 92.40625 224.710938 C 92.40625 226.015625 93.46875 227.074219 94.773438 227.074219 C 96.074219 227.074219 97.136719 226.015625 97.136719 224.710938 C 97.136719 223.378906 96.074219 222.316406 94.773438 222.316406 Z M 66.273438 226.984375 C 66 226.984375 65.757812 226.742188 65.757812 226.46875 L 65.757812 222.921875 C 65.757812 222.648438 66 222.40625 66.273438 222.40625 C 66.546875 222.40625 66.789062 222.648438 66.789062 222.921875 L 66.789062 226.46875 C 66.789062 226.742188 66.546875 226.984375 66.273438 226.984375 Z M 62.238281 228.078125 C 61.96875 228.078125 61.722656 227.832031 61.722656 227.5625 L 61.722656 221.832031 C 61.722656 221.558594 61.96875 221.316406 62.238281 221.316406 C 62.511719 221.316406 62.726562 221.558594 62.726562 221.832031 L 62.726562 227.5625 C 62.726562 227.832031 62.511719 228.078125 62.238281 228.078125 Z M 58.207031 228.078125 C 57.933594 228.078125 57.691406 227.832031 57.691406 227.5625 L 57.691406 221.832031 C 57.691406 221.558594 57.933594 221.316406 58.207031 221.316406 C 58.480469 221.316406 58.691406 221.558594 58.691406 221.832031 L 58.691406 227.5625 C 58.691406 227.832031 58.480469 228.078125 58.207031 228.078125 Z M 58.207031 228.078125 " fill-opacity="1" fill-rule="evenodd"/><path fill="#e64c6e" d="M 77.914062 238.960938 C 77.640625 238.960938 77.429688 238.75 77.429688 238.445312 L 77.429688 231.59375 C 77.429688 231.320312 77.640625 231.109375 77.914062 231.109375 C 78.21875 231.109375 78.429688 231.320312 78.429688 231.59375 L 78.429688 238.445312 C 78.429688 238.75 78.21875 238.960938 77.914062 238.960938 Z M 77.914062 238.960938 " fill-opacity="1" fill-rule="evenodd"/><path fill="#e64c6e" d="M 83.25 243.8125 L 72.609375 243.8125 C 72.335938 243.8125 72.09375 243.597656 72.09375 243.328125 L 72.09375 238.445312 C 72.09375 238.171875 72.335938 237.960938 72.609375 237.960938 L 83.25 237.960938 C 83.523438 237.960938 83.765625 238.171875 83.765625 238.445312 L 83.765625 243.328125 C 83.765625 243.597656 83.523438 243.8125 83.25 243.8125 Z M 83.25 243.8125 " fill-opacity="1" fill-rule="evenodd"/><path fill="#e64c6e" d="M 95.4375 241.386719 L 83.25 241.386719 C 82.976562 241.386719 82.734375 241.175781 82.734375 240.902344 C 82.734375 240.597656 82.976562 240.386719 83.25 240.386719 L 95.4375 240.386719 C 95.710938 240.386719 95.953125 240.597656 95.953125 240.902344 C 95.953125 241.175781 95.710938 241.386719 95.4375 241.386719 Z M 72.609375 241.386719 L 60.421875 241.386719 C 60.148438 241.386719 59.90625 241.175781 59.90625 240.902344 C 59.90625 240.597656 60.148438 240.386719 60.421875 240.386719 L 72.609375 240.386719 C 72.882812 240.386719 73.09375 240.597656 73.09375 240.902344 C 73.09375 241.175781 72.882812 241.386719 72.609375 241.386719 Z M 72.609375 241.386719 " fill-opacity="1" fill-rule="evenodd"/><g clip-path="url(#dcd34732ed)"><path fill="#e6e6e6" d="M 297.050781 256.636719 L 297.082031 256.636719 C 298.40625 256.636719 299.726562 256.703125 301.042969 256.832031 C 302.359375 256.960938 303.667969 257.15625 304.964844 257.414062 C 306.265625 257.671875 307.546875 257.992188 308.8125 258.378906 C 310.082031 258.761719 311.324219 259.207031 312.546875 259.714844 C 313.769531 260.21875 314.964844 260.785156 316.132812 261.410156 C 317.300781 262.03125 318.433594 262.710938 319.535156 263.449219 C 320.636719 264.183594 321.699219 264.972656 322.71875 265.8125 C 323.742188 266.652344 324.722656 267.539062 325.660156 268.472656 C 326.59375 269.410156 327.484375 270.390625 328.324219 271.414062 C 329.164062 272.4375 329.949219 273.496094 330.683594 274.597656 C 331.421875 275.699219 332.101562 276.832031 332.722656 278 C 333.347656 279.167969 333.914062 280.363281 334.421875 281.585938 C 334.925781 282.808594 335.371094 284.054688 335.757812 285.320312 C 336.140625 286.585938 336.460938 287.867188 336.71875 289.167969 C 336.976562 290.464844 337.171875 291.773438 337.300781 293.089844 C 337.433594 294.40625 337.496094 295.726562 337.496094 297.050781 L 337.496094 297.082031 C 337.496094 298.40625 337.433594 299.726562 337.300781 301.042969 C 337.171875 302.359375 336.976562 303.667969 336.71875 304.964844 C 336.460938 306.265625 336.140625 307.546875 335.757812 308.8125 C 335.371094 310.082031 334.925781 311.324219 334.421875 312.546875 C 333.914062 313.769531 333.347656 314.964844 332.722656 316.132812 C 332.101562 317.300781 331.421875 318.433594 330.683594 319.535156 C 329.949219 320.636719 329.164062 321.699219 328.324219 322.71875 C 327.484375 323.742188 326.59375 324.722656 325.660156 325.660156 C 324.722656 326.59375 323.742188 327.484375 322.71875 328.324219 C 321.699219 329.164062 320.636719 329.949219 319.535156 330.683594 C 318.433594 331.421875 317.300781 332.101562 316.132812 332.722656 C 314.964844 333.347656 313.769531 333.914062 312.546875 334.421875 C 311.324219 334.925781 310.082031 335.371094 308.8125 335.757812 C 307.546875 336.140625 306.265625 336.460938 304.964844 336.71875 C 303.667969 336.976562 302.359375 337.171875 301.042969 337.300781 C 299.726562 337.433594 298.40625 337.496094 297.082031 337.496094 L 297.050781 337.496094 C 295.726562 337.496094 294.40625 337.433594 293.089844 337.300781 C 291.773438 337.171875 290.464844 336.976562 289.167969 336.71875 C 287.867188 336.460938 286.585938 336.140625 285.320312 335.757812 C 284.054688 335.371094 282.808594 334.925781 281.585938 334.421875 C 280.363281 333.914062 279.167969 333.347656 278 332.722656 C 276.832031 332.101562 275.699219 331.421875 274.597656 330.683594 C 273.496094 329.949219 272.4375 329.164062 271.414062 328.324219 C 270.390625 327.484375 269.410156 326.59375 268.472656 325.660156 C 267.539062 324.722656 266.652344 323.742188 265.8125 322.71875 C 264.972656 321.699219 264.183594 320.636719 263.449219 319.535156 C 262.710938 318.433594 262.035156 317.300781 261.410156 316.132812 C 260.785156 314.964844 260.21875 313.769531 259.714844 312.546875 C 259.207031 311.324219 258.761719 310.082031 258.378906 308.8125 C 257.992188 307.546875 257.671875 306.265625 257.414062 304.964844 C 257.15625 303.667969 256.960938 302.359375 256.832031 301.042969 C 256.703125 299.726562 256.636719 298.40625 256.636719 297.082031 L 256.636719 297.050781 C 256.636719 295.726562 256.703125 294.40625 256.832031 293.089844 C 256.960938 291.773438 257.15625 290.464844 257.414062 289.167969 C 257.671875 287.867188 257.992188 286.585938 258.378906 285.320312 C 258.761719 284.054688 259.207031 282.808594 259.714844 281.585938 C 260.21875 280.363281 260.785156 279.167969 261.410156 278 C 262.035156 276.832031 262.710938 275.699219 263.449219 274.597656 C 264.183594 273.496094 264.972656 272.4375 265.8125 271.414062 C 266.652344 270.390625 267.539062 269.410156 268.472656 268.472656 C 269.410156 267.539062 270.390625 266.652344 271.414062 265.8125 C 272.4375 264.972656 273.496094 264.183594 274.597656 263.449219 C 275.699219 262.710938 276.832031 262.03125 278 261.410156 C 279.167969 260.785156 280.363281 260.21875 281.585938 259.714844 C 282.808594 259.207031 284.054688 258.761719 285.320312 258.378906 C 286.585938 257.992188 287.867188 257.671875 289.167969 257.414062 C 290.464844 257.15625 291.773438 256.960938 293.089844 256.832031 C 294.40625 256.703125 295.726562 256.636719 297.050781 256.636719 Z M 297.050781 256.636719 " fill-opacity="1" fill-rule="evenodd"/></g><path fill="#e64c6e" d="M 305.664062 312.636719 L 314.574219 312.636719 C 316.457031 312.636719 318 314.179688 318 316.089844 C 318 317.972656 316.457031 319.519531 314.574219 319.519531 L 305.664062 319.519531 C 305.238281 320.941406 303.902344 321.941406 302.386719 321.941406 L 291.746094 321.941406 C 290.199219 321.941406 288.894531 320.941406 288.441406 319.519531 L 279.558594 319.519531 C 277.648438 319.519531 276.101562 317.972656 276.101562 316.089844 C 276.101562 314.179688 277.648438 312.636719 279.558594 312.636719 L 288.441406 312.636719 C 288.867188 311.300781 290.046875 310.363281 291.441406 310.238281 L 273.738281 310.238281 C 270.734375 310.238281 268.25 307.753906 268.25 304.753906 C 268.25 295.71875 268.25 286.683594 268.25 277.679688 C 268.25 274.644531 270.734375 272.191406 273.738281 272.191406 L 320.367188 272.191406 C 323.398438 272.191406 325.855469 274.644531 325.855469 277.679688 C 325.855469 286.683594 325.855469 295.71875 325.855469 304.753906 C 325.855469 307.753906 323.398438 310.238281 320.367188 310.238281 L 302.691406 310.238281 C 304.085938 310.363281 305.269531 311.300781 305.664062 312.636719 Z M 305.664062 312.636719 " fill-opacity="1" fill-rule="evenodd"/><path fill="#fefefe" d="M 305.269531 313.152344 L 314.574219 313.152344 C 316.183594 313.152344 317.515625 314.453125 317.515625 316.089844 C 317.515625 317.699219 316.183594 319.003906 314.574219 319.003906 L 305.269531 319.003906 C 305.027344 320.398438 303.84375 321.425781 302.386719 321.425781 L 291.746094 321.425781 C 290.289062 321.425781 289.078125 320.398438 288.835938 319.003906 L 279.558594 319.003906 C 277.921875 319.003906 276.617188 317.699219 276.617188 316.089844 C 276.617188 314.453125 277.921875 313.152344 279.558594 313.152344 L 288.835938 313.152344 C 289.078125 311.757812 290.289062 310.726562 291.746094 310.726562 L 294.140625 310.726562 L 294.140625 309.726562 L 273.738281 309.726562 C 271.007812 309.726562 268.765625 307.480469 268.765625 304.753906 C 268.765625 294.839844 268.765625 287.5625 268.765625 277.679688 C 268.765625 274.917969 271.007812 272.675781 273.738281 272.675781 L 320.367188 272.675781 C 323.125 272.675781 325.367188 274.917969 325.367188 277.679688 C 325.367188 287.5625 325.367188 294.839844 325.367188 304.753906 C 325.367188 307.480469 323.125 309.726562 320.367188 309.726562 L 299.992188 309.726562 L 299.992188 310.726562 L 302.386719 310.726562 C 303.84375 310.726562 305.027344 311.757812 305.269531 313.152344 Z M 305.269531 313.152344 " fill-opacity="1" fill-rule="evenodd"/><path fill="#e64c6e" d="M 320.367188 289.925781 L 273.738281 289.925781 C 272.34375 289.925781 271.191406 288.773438 271.191406 287.378906 L 271.191406 277.679688 C 271.191406 276.253906 272.34375 275.101562 273.738281 275.101562 L 320.367188 275.101562 C 321.792969 275.101562 322.945312 276.253906 322.945312 277.679688 L 322.945312 287.378906 C 322.945312 288.773438 321.792969 289.925781 320.367188 289.925781 Z M 277.34375 285.894531 C 277.070312 285.894531 276.828125 285.683594 276.828125 285.378906 L 276.828125 279.648438 C 276.828125 279.375 277.070312 279.132812 277.34375 279.132812 C 277.617188 279.132812 277.828125 279.375 277.828125 279.648438 L 277.828125 285.378906 C 277.828125 285.683594 277.617188 285.894531 277.34375 285.894531 Z M 303.023438 283.015625 L 291.109375 283.015625 C 290.835938 283.015625 290.59375 282.800781 290.59375 282.527344 C 290.59375 282.257812 290.835938 282.015625 291.109375 282.015625 L 303.023438 282.015625 C 303.296875 282.015625 303.507812 282.257812 303.507812 282.527344 C 303.507812 282.800781 303.296875 283.015625 303.023438 283.015625 Z M 313.910156 285.894531 C 312.058594 285.894531 310.542969 284.378906 310.542969 282.527344 C 310.542969 280.648438 312.058594 279.132812 313.910156 279.132812 C 315.789062 279.132812 317.304688 280.648438 317.304688 282.527344 C 317.304688 284.378906 315.789062 285.894531 313.910156 285.894531 Z M 313.910156 280.164062 C 312.605469 280.164062 311.542969 281.226562 311.542969 282.527344 C 311.542969 283.832031 312.605469 284.894531 313.910156 284.894531 C 315.210938 284.894531 316.273438 283.832031 316.273438 282.527344 C 316.273438 281.226562 315.210938 280.164062 313.910156 280.164062 Z M 285.410156 284.804688 C 285.136719 284.804688 284.894531 284.589844 284.894531 284.289062 L 284.894531 280.742188 C 284.894531 280.46875 285.136719 280.226562 285.410156 280.226562 C 285.683594 280.226562 285.925781 280.46875 285.925781 280.742188 L 285.925781 284.289062 C 285.925781 284.589844 285.683594 284.804688 285.410156 284.804688 Z M 281.378906 285.894531 C 281.105469 285.894531 280.863281 285.683594 280.863281 285.378906 L 280.863281 279.648438 C 280.863281 279.375 281.105469 279.132812 281.378906 279.132812 C 281.648438 279.132812 281.863281 279.375 281.863281 279.648438 L 281.863281 285.378906 C 281.863281 285.683594 281.648438 285.894531 281.378906 285.894531 Z M 281.378906 285.894531 " fill-opacity="1" fill-rule="evenodd"/><path fill="#e64c6e" d="M 316.820312 293.472656 L 277.3125 293.472656 C 277.011719 293.472656 276.800781 293.261719 276.800781 292.988281 L 276.800781 289.441406 C 276.800781 289.136719 277.011719 288.925781 277.3125 288.925781 L 316.820312 288.925781 C 317.09375 288.925781 317.335938 289.136719 317.335938 289.441406 L 317.335938 292.988281 C 317.335938 293.261719 317.09375 293.472656 316.820312 293.472656 Z M 277.800781 292.472656 L 316.304688 292.472656 L 316.304688 289.925781 L 277.800781 289.925781 Z M 277.800781 292.472656 " fill-opacity="1" fill-rule="evenodd"/><path fill="#e64c6e" d="M 320.367188 307.300781 L 273.738281 307.300781 C 272.34375 307.300781 271.191406 306.148438 271.191406 304.753906 L 271.191406 295.019531 C 271.191406 293.625 272.34375 292.472656 273.738281 292.472656 L 320.367188 292.472656 C 321.792969 292.472656 322.945312 293.625 322.945312 295.019531 L 322.945312 304.753906 C 322.945312 306.148438 321.792969 307.300781 320.367188 307.300781 Z M 303.023438 300.386719 L 291.109375 300.386719 C 290.835938 300.386719 290.59375 300.175781 290.59375 299.902344 C 290.59375 299.597656 290.835938 299.386719 291.109375 299.386719 L 303.023438 299.386719 C 303.296875 299.386719 303.507812 299.597656 303.507812 299.902344 C 303.507812 300.175781 303.296875 300.386719 303.023438 300.386719 Z M 313.910156 303.265625 C 312.058594 303.265625 310.542969 301.75 310.542969 299.902344 C 310.542969 298.023438 312.058594 296.507812 313.910156 296.507812 C 315.789062 296.507812 317.304688 298.023438 317.304688 299.902344 C 317.304688 301.75 315.789062 303.265625 313.910156 303.265625 Z M 313.910156 297.507812 C 312.605469 297.507812 311.542969 298.566406 311.542969 299.902344 C 311.542969 301.207031 312.605469 302.265625 313.910156 302.265625 C 315.210938 302.265625 316.273438 301.207031 316.273438 299.902344 C 316.273438 298.566406 315.210938 297.507812 313.910156 297.507812 Z M 285.410156 302.175781 C 285.136719 302.175781 284.894531 301.933594 284.894531 301.660156 L 284.894531 298.113281 C 284.894531 297.839844 285.136719 297.597656 285.410156 297.597656 C 285.683594 297.597656 285.925781 297.839844 285.925781 298.113281 L 285.925781 301.660156 C 285.925781 301.933594 285.683594 302.175781 285.410156 302.175781 Z M 281.378906 303.265625 C 281.105469 303.265625 280.863281 303.023438 280.863281 302.75 L 280.863281 297.019531 C 280.863281 296.75 281.105469 296.507812 281.378906 296.507812 C 281.648438 296.507812 281.863281 296.75 281.863281 297.019531 L 281.863281 302.75 C 281.863281 303.023438 281.648438 303.265625 281.378906 303.265625 Z M 277.34375 303.265625 C 277.070312 303.265625 276.828125 303.023438 276.828125 302.75 L 276.828125 297.019531 C 276.828125 296.75 277.070312 296.507812 277.34375 296.507812 C 277.617188 296.507812 277.828125 296.75 277.828125 297.019531 L 277.828125 302.75 C 277.828125 303.023438 277.617188 303.265625 277.34375 303.265625 Z M 277.34375 303.265625 " fill-opacity="1" fill-rule="evenodd"/><path fill="#e64c6e" d="M 297.050781 314.152344 C 296.777344 314.152344 296.566406 313.9375 296.566406 313.636719 L 296.566406 306.785156 C 296.566406 306.511719 296.777344 306.296875 297.050781 306.296875 C 297.355469 306.296875 297.566406 306.511719 297.566406 306.785156 L 297.566406 313.636719 C 297.566406 313.9375 297.355469 314.152344 297.050781 314.152344 Z M 297.050781 314.152344 " fill-opacity="1" fill-rule="evenodd"/><path fill="#e64c6e" d="M 302.386719 319.003906 L 291.746094 319.003906 C 291.472656 319.003906 291.230469 318.789062 291.230469 318.515625 L 291.230469 313.636719 C 291.230469 313.363281 291.472656 313.152344 291.746094 313.152344 L 302.386719 313.152344 C 302.660156 313.152344 302.902344 313.363281 302.902344 313.636719 L 302.902344 318.515625 C 302.902344 318.789062 302.660156 319.003906 302.386719 319.003906 Z M 302.386719 319.003906 " fill-opacity="1" fill-rule="evenodd"/><path fill="#e64c6e" d="M 314.574219 316.578125 L 302.386719 316.578125 C 302.113281 316.578125 301.871094 316.363281 301.871094 316.089844 C 301.871094 315.789062 302.113281 315.578125 302.386719 315.578125 L 314.574219 315.578125 C 314.847656 315.578125 315.089844 315.789062 315.089844 316.089844 C 315.089844 316.363281 314.847656 316.578125 314.574219 316.578125 Z M 291.746094 316.578125 L 279.558594 316.578125 C 279.285156 316.578125 279.042969 316.363281 279.042969 316.089844 C 279.042969 315.789062 279.285156 315.578125 279.558594 315.578125 L 291.746094 315.578125 C 292.019531 315.578125 292.230469 315.789062 292.230469 316.089844 C 292.230469 316.363281 292.019531 316.578125 291.746094 316.578125 Z M 291.746094 316.578125 " fill-opacity="1" fill-rule="evenodd"/><g clip-path="url(#998e05aadd)"><path fill="#e6e6e6" d="M 297.050781 75.308594 L 297.082031 75.308594 C 298.40625 75.308594 299.726562 75.375 301.042969 75.503906 C 302.359375 75.636719 303.667969 75.828125 304.964844 76.085938 C 306.265625 76.34375 307.546875 76.667969 308.8125 77.050781 C 310.082031 77.433594 311.324219 77.878906 312.546875 78.386719 C 313.769531 78.894531 314.964844 79.457031 316.132812 80.082031 C 317.300781 80.707031 318.433594 81.386719 319.535156 82.121094 C 320.636719 82.855469 321.699219 83.644531 322.71875 84.484375 C 323.742188 85.324219 324.722656 86.210938 325.660156 87.148438 C 326.59375 88.082031 327.484375 89.0625 328.324219 90.085938 C 329.164062 91.109375 329.949219 92.171875 330.683594 93.273438 C 331.421875 94.371094 332.101562 95.507812 332.722656 96.671875 C 333.347656 97.839844 333.914062 99.035156 334.421875 100.257812 C 334.925781 101.480469 335.371094 102.726562 335.757812 103.992188 C 336.140625 105.261719 336.460938 106.542969 336.71875 107.839844 C 336.976562 109.140625 337.171875 110.445312 337.300781 111.761719 C 337.433594 113.082031 337.496094 114.402344 337.496094 115.726562 L 337.496094 115.753906 C 337.496094 117.078125 337.433594 118.398438 337.300781 119.714844 C 337.171875 121.035156 336.976562 122.339844 336.71875 123.640625 C 336.460938 124.9375 336.140625 126.21875 335.757812 127.488281 C 335.371094 128.753906 334.925781 130 334.421875 131.222656 C 333.914062 132.445312 333.347656 133.640625 332.722656 134.804688 C 332.101562 135.972656 331.421875 137.109375 330.683594 138.207031 C 329.949219 139.308594 329.164062 140.371094 328.324219 141.394531 C 327.484375 142.417969 326.59375 143.398438 325.660156 144.332031 C 324.722656 145.269531 323.742188 146.15625 322.71875 146.996094 C 321.699219 147.835938 320.636719 148.625 319.535156 149.359375 C 318.433594 150.09375 317.300781 150.773438 316.132812 151.398438 C 314.964844 152.023438 313.769531 152.585938 312.546875 153.09375 C 311.324219 153.601562 310.082031 154.046875 308.8125 154.429688 C 307.546875 154.8125 306.265625 155.136719 304.964844 155.394531 C 303.667969 155.652344 302.359375 155.84375 301.042969 155.976562 C 299.726562 156.105469 298.40625 156.167969 297.082031 156.167969 L 297.050781 156.167969 C 295.726562 156.167969 294.40625 156.105469 293.089844 155.976562 C 291.773438 155.84375 290.464844 155.652344 289.167969 155.394531 C 287.867188 155.136719 286.585938 154.8125 285.320312 154.429688 C 284.054688 154.046875 282.808594 153.601562 281.585938 153.09375 C 280.363281 152.585938 279.167969 152.023438 278 151.398438 C 276.832031 150.773438 275.699219 150.09375 274.597656 149.359375 C 273.496094 148.625 272.4375 147.835938 271.414062 146.996094 C 270.390625 146.15625 269.410156 145.269531 268.472656 144.332031 C 267.539062 143.398438 266.652344 142.417969 265.8125 141.394531 C 264.972656 140.371094 264.183594 139.308594 263.449219 138.207031 C 262.710938 137.109375 262.035156 135.972656 261.410156 134.804688 C 260.785156 133.640625 260.21875 132.445312 259.714844 131.222656 C 259.207031 130 258.761719 128.753906 258.378906 127.488281 C 257.992188 126.21875 257.671875 124.9375 257.414062 123.640625 C 257.15625 122.339844 256.960938 121.035156 256.832031 119.714844 C 256.703125 118.398438 256.636719 117.078125 256.636719 115.753906 L 256.636719 115.726562 C 256.636719 114.402344 256.703125 113.082031 256.832031 111.761719 C 256.960938 110.445312 257.15625 109.140625 257.414062 107.839844 C 257.671875 106.542969 257.992188 105.261719 258.378906 103.992188 C 258.761719 102.726562 259.207031 101.480469 259.714844 100.257812 C 260.21875 99.035156 260.785156 97.839844 261.410156 96.671875 C 262.035156 95.507812 262.710938 94.371094 263.449219 93.273438 C 264.183594 92.171875 264.972656 91.109375 265.8125 90.085938 C 266.652344 89.0625 267.539062 88.082031 268.472656 87.148438 C 269.410156 86.210938 270.390625 85.324219 271.414062 84.484375 C 272.4375 83.644531 273.496094 82.855469 274.597656 82.121094 C 275.699219 81.386719 276.832031 80.707031 278 80.082031 C 279.167969 79.457031 280.363281 78.894531 281.585938 78.386719 C 282.808594 77.878906 284.054688 77.433594 285.320312 77.050781 C 286.585938 76.667969 287.867188 76.34375 289.167969 76.085938 C 290.464844 75.828125 291.773438 75.636719 293.089844 75.503906 C 294.40625 75.375 295.726562 75.308594 297.050781 75.308594 Z M 297.050781 75.308594 " fill-opacity="1" fill-rule="evenodd"/></g><path fill="#e64c6e" d="M 305.664062 131.308594 L 314.574219 131.308594 C 316.457031 131.308594 318 132.855469 318 134.765625 C 318 136.644531 316.457031 138.191406 314.574219 138.191406 L 305.664062 138.191406 C 305.238281 139.617188 303.902344 140.617188 302.386719 140.617188 L 291.746094 140.617188 C 290.199219 140.617188 288.894531 139.617188 288.441406 138.191406 L 279.558594 138.191406 C 277.648438 138.191406 276.101562 136.644531 276.101562 134.765625 C 276.101562 132.855469 277.648438 131.308594 279.558594 131.308594 L 288.441406 131.308594 C 288.867188 129.976562 290.046875 129.035156 291.441406 128.914062 L 273.738281 128.914062 C 270.734375 128.914062 268.25 126.425781 268.25 123.425781 C 268.25 114.390625 268.25 105.355469 268.25 96.351562 C 268.25 93.320312 270.734375 90.863281 273.738281 90.863281 L 320.367188 90.863281 C 323.398438 90.863281 325.855469 93.320312 325.855469 96.351562 C 325.855469 105.355469 325.855469 114.390625 325.855469 123.425781 C 325.855469 126.425781 323.398438 128.914062 320.367188 128.914062 L 302.691406 128.914062 C 304.085938 129.035156 305.269531 129.976562 305.664062 131.308594 Z M 305.664062 131.308594 " fill-opacity="1" fill-rule="evenodd"/><path fill="#fefefe" d="M 305.269531 131.824219 L 314.574219 131.824219 C 316.183594 131.824219 317.515625 133.128906 317.515625 134.765625 C 317.515625 136.371094 316.183594 137.675781 314.574219 137.675781 L 305.269531 137.675781 C 305.027344 139.070312 303.84375 140.101562 302.386719 140.101562 L 291.746094 140.101562 C 290.289062 140.101562 289.078125 139.070312 288.835938 137.675781 L 279.558594 137.675781 C 277.921875 137.675781 276.617188 136.371094 276.617188 134.765625 C 276.617188 133.128906 277.921875 131.824219 279.558594 131.824219 L 288.835938 131.824219 C 289.078125 130.429688 290.289062 129.398438 291.746094 129.398438 L 294.140625 129.398438 L 294.140625 128.398438 L 273.738281 128.398438 C 271.007812 128.398438 268.765625 126.15625 268.765625 123.425781 C 268.765625 113.511719 268.765625 106.234375 268.765625 96.351562 C 268.765625 93.59375 271.007812 91.347656 273.738281 91.347656 L 320.367188 91.347656 C 323.125 91.347656 325.367188 93.59375 325.367188 96.351562 C 325.367188 106.234375 325.367188 113.511719 325.367188 123.425781 C 325.367188 126.15625 323.125 128.398438 320.367188 128.398438 L 299.992188 128.398438 L 299.992188 129.398438 L 302.386719 129.398438 C 303.84375 129.398438 305.027344 130.429688 305.269531 131.824219 Z M 305.269531 131.824219 " fill-opacity="1" fill-rule="evenodd"/><path fill="#e64c6e" d="M 320.367188 108.601562 L 273.738281 108.601562 C 272.34375 108.601562 271.191406 107.449219 271.191406 106.054688 L 271.191406 96.351562 C 271.191406 94.925781 272.34375 93.773438 273.738281 93.773438 L 320.367188 93.773438 C 321.792969 93.773438 322.945312 94.925781 322.945312 96.351562 L 322.945312 106.054688 C 322.945312 107.449219 321.792969 108.601562 320.367188 108.601562 Z M 277.34375 104.566406 C 277.070312 104.566406 276.828125 104.355469 276.828125 104.050781 L 276.828125 98.320312 C 276.828125 98.050781 277.070312 97.808594 277.34375 97.808594 C 277.617188 97.808594 277.828125 98.050781 277.828125 98.320312 L 277.828125 104.050781 C 277.828125 104.355469 277.617188 104.566406 277.34375 104.566406 Z M 303.023438 101.6875 L 291.109375 101.6875 C 290.835938 101.6875 290.59375 101.476562 290.59375 101.203125 C 290.59375 100.929688 290.835938 100.6875 291.109375 100.6875 L 303.023438 100.6875 C 303.296875 100.6875 303.507812 100.929688 303.507812 101.203125 C 303.507812 101.476562 303.296875 101.6875 303.023438 101.6875 Z M 313.910156 104.566406 C 312.058594 104.566406 310.542969 103.050781 310.542969 101.203125 C 310.542969 99.324219 312.058594 97.808594 313.910156 97.808594 C 315.789062 97.808594 317.304688 99.324219 317.304688 101.203125 C 317.304688 103.050781 315.789062 104.566406 313.910156 104.566406 Z M 313.910156 98.835938 C 312.605469 98.835938 311.542969 99.898438 311.542969 101.203125 C 311.542969 102.507812 312.605469 103.566406 313.910156 103.566406 C 315.210938 103.566406 316.273438 102.507812 316.273438 101.203125 C 316.273438 99.898438 315.210938 98.835938 313.910156 98.835938 Z M 285.410156 103.476562 C 285.136719 103.476562 284.894531 103.265625 284.894531 102.960938 L 284.894531 99.414062 C 284.894531 99.140625 285.136719 98.898438 285.410156 98.898438 C 285.683594 98.898438 285.925781 99.140625 285.925781 99.414062 L 285.925781 102.960938 C 285.925781 103.265625 285.683594 103.476562 285.410156 103.476562 Z M 281.378906 104.566406 C 281.105469 104.566406 280.863281 104.355469 280.863281 104.050781 L 280.863281 98.320312 C 280.863281 98.050781 281.105469 97.808594 281.378906 97.808594 C 281.648438 97.808594 281.863281 98.050781 281.863281 98.320312 L 281.863281 104.050781 C 281.863281 104.355469 281.648438 104.566406 281.378906 104.566406 Z M 281.378906 104.566406 " fill-opacity="1" fill-rule="evenodd"/><path fill="#e64c6e" d="M 316.820312 112.148438 L 277.3125 112.148438 C 277.011719 112.148438 276.800781 111.933594 276.800781 111.664062 L 276.800781 108.113281 C 276.800781 107.8125 277.011719 107.601562 277.3125 107.601562 L 316.820312 107.601562 C 317.09375 107.601562 317.335938 107.8125 317.335938 108.113281 L 317.335938 111.664062 C 317.335938 111.933594 317.09375 112.148438 316.820312 112.148438 Z M 277.800781 111.148438 L 316.304688 111.148438 L 316.304688 108.601562 L 277.800781 108.601562 Z M 277.800781 111.148438 " fill-opacity="1" fill-rule="evenodd"/><path fill="#e64c6e" d="M 320.367188 125.972656 L 273.738281 125.972656 C 272.34375 125.972656 271.191406 124.820312 271.191406 123.425781 L 271.191406 113.695312 C 271.191406 112.300781 272.34375 111.148438 273.738281 111.148438 L 320.367188 111.148438 C 321.792969 111.148438 322.945312 112.300781 322.945312 113.695312 L 322.945312 123.425781 C 322.945312 124.820312 321.792969 125.972656 320.367188 125.972656 Z M 303.023438 119.058594 L 291.109375 119.058594 C 290.835938 119.058594 290.59375 118.847656 290.59375 118.574219 C 290.59375 118.273438 290.835938 118.058594 291.109375 118.058594 L 303.023438 118.058594 C 303.296875 118.058594 303.507812 118.273438 303.507812 118.574219 C 303.507812 118.847656 303.296875 119.058594 303.023438 119.058594 Z M 313.910156 121.941406 C 312.058594 121.941406 310.542969 120.425781 310.542969 118.574219 C 310.542969 116.695312 312.058594 115.179688 313.910156 115.179688 C 315.789062 115.179688 317.304688 116.695312 317.304688 118.574219 C 317.304688 120.425781 315.789062 121.941406 313.910156 121.941406 Z M 313.910156 116.179688 C 312.605469 116.179688 311.542969 117.242188 311.542969 118.574219 C 311.542969 119.878906 312.605469 120.941406 313.910156 120.941406 C 315.210938 120.941406 316.273438 119.878906 316.273438 118.574219 C 316.273438 117.242188 315.210938 116.179688 313.910156 116.179688 Z M 285.410156 120.847656 C 285.136719 120.847656 284.894531 120.605469 284.894531 120.332031 L 284.894531 116.785156 C 284.894531 116.511719 285.136719 116.269531 285.410156 116.269531 C 285.683594 116.269531 285.925781 116.511719 285.925781 116.785156 L 285.925781 120.332031 C 285.925781 120.605469 285.683594 120.847656 285.410156 120.847656 Z M 281.378906 121.941406 C 281.105469 121.941406 280.863281 121.699219 280.863281 121.425781 L 280.863281 115.695312 C 280.863281 115.421875 281.105469 115.179688 281.378906 115.179688 C 281.648438 115.179688 281.863281 115.421875 281.863281 115.695312 L 281.863281 121.425781 C 281.863281 121.699219 281.648438 121.941406 281.378906 121.941406 Z M 277.34375 121.941406 C 277.070312 121.941406 276.828125 121.699219 276.828125 121.425781 L 276.828125 115.695312 C 276.828125 115.421875 277.070312 115.179688 277.34375 115.179688 C 277.617188 115.179688 277.828125 115.421875 277.828125 115.695312 L 277.828125 121.425781 C 277.828125 121.699219 277.617188 121.941406 277.34375 121.941406 Z M 277.34375 121.941406 " fill-opacity="1" fill-rule="evenodd"/><path fill="#e64c6e" d="M 297.050781 132.824219 C 296.777344 132.824219 296.566406 132.613281 296.566406 132.308594 L 296.566406 125.457031 C 296.566406 125.183594 296.777344 124.972656 297.050781 124.972656 C 297.355469 124.972656 297.566406 125.183594 297.566406 125.457031 L 297.566406 132.308594 C 297.566406 132.613281 297.355469 132.824219 297.050781 132.824219 Z M 297.050781 132.824219 " fill-opacity="1" fill-rule="evenodd"/><path fill="#e64c6e" d="M 302.386719 137.675781 L 291.746094 137.675781 C 291.472656 137.675781 291.230469 137.464844 291.230469 137.191406 L 291.230469 132.308594 C 291.230469 132.035156 291.472656 131.824219 291.746094 131.824219 L 302.386719 131.824219 C 302.660156 131.824219 302.902344 132.035156 302.902344 132.308594 L 302.902344 137.191406 C 302.902344 137.464844 302.660156 137.675781 302.386719 137.675781 Z M 302.386719 137.675781 " fill-opacity="1" fill-rule="evenodd"/><path fill="#e64c6e" d="M 314.574219 135.25 L 302.386719 135.25 C 302.113281 135.25 301.871094 135.039062 301.871094 134.765625 C 301.871094 134.460938 302.113281 134.25 302.386719 134.25 L 314.574219 134.25 C 314.847656 134.25 315.089844 134.460938 315.089844 134.765625 C 315.089844 135.039062 314.847656 135.25 314.574219 135.25 Z M 291.746094 135.25 L 279.558594 135.25 C 279.285156 135.25 279.042969 135.039062 279.042969 134.765625 C 279.042969 134.460938 279.285156 134.25 279.558594 134.25 L 291.746094 134.25 C 292.019531 134.25 292.230469 134.460938 292.230469 134.765625 C 292.230469 135.039062 292.019531 135.25 291.746094 135.25 Z M 291.746094 135.25 " fill-opacity="1" fill-rule="evenodd"/><g clip-path="url(#ddde6f4f23)"><path fill="#e6e6e6" d="M 180.800781 37.5 L 180.832031 37.5 C 182.15625 37.5 183.476562 37.566406 184.792969 37.695312 C 186.109375 37.824219 187.417969 38.019531 188.714844 38.277344 C 190.015625 38.535156 191.296875 38.855469 192.5625 39.238281 C 193.832031 39.625 195.074219 40.070312 196.296875 40.578125 C 197.519531 41.082031 198.714844 41.648438 199.882812 42.273438 C 201.050781 42.894531 202.183594 43.574219 203.285156 44.3125 C 204.386719 45.046875 205.449219 45.832031 206.472656 46.671875 C 207.492188 47.511719 208.472656 48.402344 209.410156 49.335938 C 210.34375 50.273438 211.234375 51.253906 212.074219 52.277344 C 212.914062 53.300781 213.699219 54.359375 214.4375 55.460938 C 215.171875 56.5625 215.851562 57.695312 216.476562 58.863281 C 217.097656 60.03125 217.664062 61.226562 218.171875 62.449219 C 218.675781 63.671875 219.121094 64.917969 219.507812 66.183594 C 219.890625 67.449219 220.210938 68.730469 220.46875 70.03125 C 220.726562 71.328125 220.921875 72.636719 221.050781 73.953125 C 221.183594 75.269531 221.246094 76.589844 221.246094 77.914062 L 221.246094 77.945312 C 221.246094 79.269531 221.183594 80.589844 221.050781 81.90625 C 220.921875 83.222656 220.726562 84.53125 220.46875 85.828125 C 220.210938 87.128906 219.890625 88.410156 219.507812 89.675781 C 219.121094 90.941406 218.675781 92.1875 218.171875 93.410156 C 217.664062 94.632812 217.097656 95.828125 216.476562 96.996094 C 215.851562 98.164062 215.171875 99.296875 214.4375 100.398438 C 213.699219 101.5 212.914062 102.558594 212.074219 103.582031 C 211.234375 104.605469 210.34375 105.585938 209.410156 106.523438 C 208.472656 107.457031 207.492188 108.347656 206.472656 109.1875 C 205.449219 110.023438 204.386719 110.8125 203.285156 111.546875 C 202.183594 112.285156 201.050781 112.964844 199.882812 113.585938 C 198.714844 114.210938 197.519531 114.777344 196.296875 115.28125 C 195.074219 115.789062 193.832031 116.234375 192.5625 116.617188 C 191.296875 117.003906 190.015625 117.324219 188.714844 117.582031 C 187.417969 117.839844 186.109375 118.035156 184.792969 118.164062 C 183.476562 118.292969 182.15625 118.359375 180.832031 118.359375 L 180.800781 118.359375 C 179.476562 118.359375 178.15625 118.292969 176.839844 118.164062 C 175.523438 118.035156 174.214844 117.839844 172.917969 117.582031 C 171.621094 117.324219 170.335938 117.003906 169.070312 116.617188 C 167.804688 116.234375 166.558594 115.789062 165.335938 115.28125 C 164.113281 114.777344 162.917969 114.210938 161.75 113.585938 C 160.582031 112.964844 159.449219 112.285156 158.347656 111.546875 C 157.25 110.8125 156.1875 110.023438 155.164062 109.1875 C 154.140625 108.347656 153.160156 107.457031 152.222656 106.523438 C 151.289062 105.585938 150.402344 104.605469 149.5625 103.582031 C 148.722656 102.558594 147.933594 101.5 147.199219 100.398438 C 146.464844 99.296875 145.785156 98.164062 145.160156 96.996094 C 144.535156 95.828125 143.96875 94.632812 143.464844 93.410156 C 142.957031 92.1875 142.511719 90.941406 142.128906 89.675781 C 141.742188 88.410156 141.421875 87.128906 141.164062 85.828125 C 140.90625 84.53125 140.710938 83.222656 140.582031 81.90625 C 140.453125 80.589844 140.386719 79.269531 140.386719 77.945312 L 140.386719 77.914062 C 140.386719 76.589844 140.453125 75.269531 140.582031 73.953125 C 140.710938 72.636719 140.90625 71.328125 141.164062 70.03125 C 141.421875 68.730469 141.742188 67.449219 142.128906 66.183594 C 142.511719 64.917969 142.957031 63.671875 143.464844 62.449219 C 143.96875 61.226562 144.535156 60.03125 145.160156 58.863281 C 145.785156 57.695312 146.464844 56.5625 147.199219 55.460938 C 147.933594 54.359375 148.722656 53.300781 149.5625 52.277344 C 150.402344 51.253906 151.289062 50.273438 152.222656 49.335938 C 153.160156 48.402344 154.140625 47.511719 155.164062 46.671875 C 156.1875 45.832031 157.25 45.046875 158.347656 44.3125 C 159.449219 43.574219 160.582031 42.894531 161.75 42.273438 C 162.917969 41.648438 164.113281 41.082031 165.335938 40.578125 C 166.558594 40.070312 167.804688 39.625 169.070312 39.238281 C 170.335938 38.855469 171.621094 38.535156 172.917969 38.277344 C 174.214844 38.019531 175.523438 37.824219 176.839844 37.695312 C 178.15625 37.566406 179.476562 37.5 180.800781 37.5 Z M 180.800781 37.5 " fill-opacity="1" fill-rule="evenodd"/></g><path fill="#e64c6e" d="M 189.414062 93.5 L 198.324219 93.5 C 200.207031 93.5 201.753906 95.042969 201.753906 96.953125 C 201.753906 98.835938 200.207031 100.378906 198.324219 100.378906 L 189.414062 100.378906 C 188.988281 101.804688 187.652344 102.804688 186.136719 102.804688 L 175.496094 102.804688 C 173.949219 102.804688 172.644531 101.804688 172.191406 100.378906 L 163.308594 100.378906 C 161.398438 100.378906 159.851562 98.835938 159.851562 96.953125 C 159.851562 95.042969 161.398438 93.5 163.308594 93.5 L 172.191406 93.5 C 172.617188 92.164062 173.796875 91.222656 175.191406 91.101562 L 157.488281 91.101562 C 154.484375 91.101562 152 88.617188 152 85.617188 C 152 76.582031 152 67.546875 152 58.542969 C 152 55.507812 154.484375 53.054688 157.488281 53.054688 L 204.117188 53.054688 C 207.148438 53.054688 209.605469 55.507812 209.605469 58.542969 C 209.605469 67.546875 209.605469 76.582031 209.605469 85.617188 C 209.605469 88.617188 207.148438 91.101562 204.117188 91.101562 L 186.441406 91.101562 C 187.835938 91.222656 189.019531 92.164062 189.414062 93.5 Z M 189.414062 93.5 " fill-opacity="1" fill-rule="evenodd"/><path fill="#fefefe" d="M 189.019531 94.011719 L 198.324219 94.011719 C 199.933594 94.011719 201.265625 95.316406 201.265625 96.953125 C 201.265625 98.5625 199.933594 99.863281 198.324219 99.863281 L 189.019531 99.863281 C 188.777344 101.257812 187.59375 102.289062 186.136719 102.289062 L 175.496094 102.289062 C 174.039062 102.289062 172.828125 101.257812 172.585938 99.863281 L 163.308594 99.863281 C 161.671875 99.863281 160.367188 98.5625 160.367188 96.953125 C 160.367188 95.316406 161.671875 94.011719 163.308594 94.011719 L 172.585938 94.011719 C 172.828125 92.617188 174.039062 91.589844 175.496094 91.589844 L 177.890625 91.589844 L 177.890625 90.585938 L 157.488281 90.585938 C 154.757812 90.585938 152.515625 88.34375 152.515625 85.617188 C 152.515625 75.703125 152.515625 68.425781 152.515625 58.542969 C 152.515625 55.78125 154.757812 53.539062 157.488281 53.539062 L 204.117188 53.539062 C 206.875 53.539062 209.121094 55.78125 209.121094 58.542969 C 209.121094 68.425781 209.121094 75.703125 209.121094 85.617188 C 209.121094 88.34375 206.875 90.585938 204.117188 90.585938 L 183.742188 90.585938 L 183.742188 91.589844 L 186.136719 91.589844 C 187.59375 91.589844 188.777344 92.617188 189.019531 94.011719 Z M 189.019531 94.011719 " fill-opacity="1" fill-rule="evenodd"/><path fill="#e64c6e" d="M 204.117188 70.789062 L 157.488281 70.789062 C 156.09375 70.789062 154.941406 69.636719 154.941406 68.242188 L 154.941406 58.542969 C 154.941406 57.117188 156.09375 55.964844 157.488281 55.964844 L 204.117188 55.964844 C 205.542969 55.964844 206.695312 57.117188 206.695312 58.542969 L 206.695312 68.242188 C 206.695312 69.636719 205.542969 70.789062 204.117188 70.789062 Z M 161.09375 66.757812 C 160.820312 66.757812 160.578125 66.546875 160.578125 66.242188 L 160.578125 60.511719 C 160.578125 60.238281 160.820312 59.996094 161.09375 59.996094 C 161.367188 59.996094 161.578125 60.238281 161.578125 60.511719 L 161.578125 66.242188 C 161.578125 66.546875 161.367188 66.757812 161.09375 66.757812 Z M 186.773438 63.878906 L 174.859375 63.878906 C 174.585938 63.878906 174.34375 63.664062 174.34375 63.390625 C 174.34375 63.117188 174.585938 62.875 174.859375 62.875 L 186.773438 62.875 C 187.046875 62.875 187.261719 63.117188 187.261719 63.390625 C 187.261719 63.664062 187.046875 63.878906 186.773438 63.878906 Z M 197.660156 66.757812 C 195.808594 66.757812 194.292969 65.242188 194.292969 63.390625 C 194.292969 61.511719 195.808594 59.996094 197.660156 59.996094 C 199.539062 59.996094 201.054688 61.511719 201.054688 63.390625 C 201.054688 65.242188 199.539062 66.757812 197.660156 66.757812 Z M 197.660156 61.027344 C 196.355469 61.027344 195.292969 62.089844 195.292969 63.390625 C 195.292969 64.695312 196.355469 65.757812 197.660156 65.757812 C 198.960938 65.757812 200.023438 64.695312 200.023438 63.390625 C 200.023438 62.089844 198.960938 61.027344 197.660156 61.027344 Z M 169.160156 65.664062 C 168.886719 65.664062 168.644531 65.453125 168.644531 65.152344 L 168.644531 61.601562 C 168.644531 61.332031 168.886719 61.085938 169.160156 61.085938 C 169.433594 61.085938 169.675781 61.332031 169.675781 61.601562 L 169.675781 65.152344 C 169.675781 65.453125 169.433594 65.664062 169.160156 65.664062 Z M 165.128906 66.757812 C 164.855469 66.757812 164.613281 66.546875 164.613281 66.242188 L 164.613281 60.511719 C 164.613281 60.238281 164.855469 59.996094 165.128906 59.996094 C 165.398438 59.996094 165.613281 60.238281 165.613281 60.511719 L 165.613281 66.242188 C 165.613281 66.546875 165.398438 66.757812 165.128906 66.757812 Z M 165.128906 66.757812 " fill-opacity="1" fill-rule="evenodd"/><path fill="#e64c6e" d="M 200.570312 74.335938 L 161.066406 74.335938 C 160.761719 74.335938 160.550781 74.125 160.550781 73.851562 L 160.550781 70.304688 C 160.550781 70 160.761719 69.789062 161.066406 69.789062 L 200.570312 69.789062 C 200.84375 69.789062 201.085938 70 201.085938 70.304688 L 201.085938 73.851562 C 201.085938 74.125 200.84375 74.335938 200.570312 74.335938 Z M 161.550781 73.335938 L 200.054688 73.335938 L 200.054688 70.789062 L 161.550781 70.789062 Z M 161.550781 73.335938 " fill-opacity="1" fill-rule="evenodd"/><path fill="#e64c6e" d="M 204.117188 88.164062 L 157.488281 88.164062 C 156.09375 88.164062 154.941406 87.011719 154.941406 85.617188 L 154.941406 75.882812 C 154.941406 74.488281 156.09375 73.335938 157.488281 73.335938 L 204.117188 73.335938 C 205.542969 73.335938 206.695312 74.488281 206.695312 75.882812 L 206.695312 85.617188 C 206.695312 87.011719 205.542969 88.164062 204.117188 88.164062 Z M 186.773438 81.25 L 174.859375 81.25 C 174.585938 81.25 174.34375 81.039062 174.34375 80.765625 C 174.34375 80.460938 174.585938 80.25 174.859375 80.25 L 186.773438 80.25 C 187.046875 80.25 187.261719 80.460938 187.261719 80.765625 C 187.261719 81.039062 187.046875 81.25 186.773438 81.25 Z M 197.660156 84.128906 C 195.808594 84.128906 194.292969 82.613281 194.292969 80.765625 C 194.292969 78.882812 195.808594 77.367188 197.660156 77.367188 C 199.539062 77.367188 201.054688 78.882812 201.054688 80.765625 C 201.054688 82.613281 199.539062 84.128906 197.660156 84.128906 Z M 197.660156 78.371094 C 196.355469 78.371094 195.292969 79.429688 195.292969 80.765625 C 195.292969 82.066406 196.355469 83.128906 197.660156 83.128906 C 198.960938 83.128906 200.023438 82.066406 200.023438 80.765625 C 200.023438 79.429688 198.960938 78.371094 197.660156 78.371094 Z M 169.160156 83.039062 C 168.886719 83.039062 168.644531 82.796875 168.644531 82.523438 L 168.644531 78.976562 C 168.644531 78.703125 168.886719 78.460938 169.160156 78.460938 C 169.433594 78.460938 169.675781 78.703125 169.675781 78.976562 L 169.675781 82.523438 C 169.675781 82.796875 169.433594 83.039062 169.160156 83.039062 Z M 165.128906 84.128906 C 164.855469 84.128906 164.613281 83.886719 164.613281 83.613281 L 164.613281 77.882812 C 164.613281 77.613281 164.855469 77.367188 165.128906 77.367188 C 165.398438 77.367188 165.613281 77.613281 165.613281 77.882812 L 165.613281 83.613281 C 165.613281 83.886719 165.398438 84.128906 165.128906 84.128906 Z M 161.09375 84.128906 C 160.820312 84.128906 160.578125 83.886719 160.578125 83.613281 L 160.578125 77.882812 C 160.578125 77.613281 160.820312 77.367188 161.09375 77.367188 C 161.367188 77.367188 161.578125 77.613281 161.578125 77.882812 L 161.578125 83.613281 C 161.578125 83.886719 161.367188 84.128906 161.09375 84.128906 Z M 161.09375 84.128906 " fill-opacity="1" fill-rule="evenodd"/><path fill="#e64c6e" d="M 180.800781 95.015625 C 180.527344 95.015625 180.316406 94.800781 180.316406 94.5 L 180.316406 87.648438 C 180.316406 87.375 180.527344 87.160156 180.800781 87.160156 C 181.105469 87.160156 181.316406 87.375 181.316406 87.648438 L 181.316406 94.5 C 181.316406 94.800781 181.105469 95.015625 180.800781 95.015625 Z M 180.800781 95.015625 " fill-opacity="1" fill-rule="evenodd"/><path fill="#e64c6e" d="M 186.136719 99.863281 L 175.496094 99.863281 C 175.222656 99.863281 174.980469 99.652344 174.980469 99.378906 L 174.980469 94.5 C 174.980469 94.226562 175.222656 94.011719 175.496094 94.011719 L 186.136719 94.011719 C 186.410156 94.011719 186.652344 94.226562 186.652344 94.5 L 186.652344 99.378906 C 186.652344 99.652344 186.410156 99.863281 186.136719 99.863281 Z M 186.136719 99.863281 " fill-opacity="1" fill-rule="evenodd"/><path fill="#e64c6e" d="M 198.324219 97.441406 L 186.136719 97.441406 C 185.863281 97.441406 185.621094 97.226562 185.621094 96.953125 C 185.621094 96.652344 185.863281 96.4375 186.136719 96.4375 L 198.324219 96.4375 C 198.597656 96.4375 198.839844 96.652344 198.839844 96.953125 C 198.839844 97.226562 198.597656 97.441406 198.324219 97.441406 Z M 175.496094 97.441406 L 163.308594 97.441406 C 163.035156 97.441406 162.792969 97.226562 162.792969 96.953125 C 162.792969 96.652344 163.035156 96.4375 163.308594 96.4375 L 175.496094 96.4375 C 175.769531 96.4375 175.980469 96.652344 175.980469 96.953125 C 175.980469 97.226562 175.769531 97.441406 175.496094 97.441406 Z M 175.496094 97.441406 " fill-opacity="1" fill-rule="evenodd"/><g clip-path="url(#cafd55d2c2)"><path fill="#e6e6e6" d="M 158.3125 256.636719 L 158.34375 256.636719 C 159.667969 256.636719 160.988281 256.703125 162.304688 256.832031 C 163.621094 256.960938 164.929688 257.15625 166.226562 257.414062 C 167.523438 257.671875 168.808594 257.992188 170.074219 258.378906 C 171.339844 258.761719 172.585938 259.207031 173.808594 259.714844 C 175.03125 260.21875 176.226562 260.785156 177.394531 261.410156 C 178.5625 262.03125 179.695312 262.710938 180.796875 263.449219 C 181.894531 264.183594 182.957031 264.972656 183.980469 265.8125 C 185.003906 266.652344 185.984375 267.539062 186.917969 268.472656 C 187.855469 269.410156 188.742188 270.390625 189.582031 271.414062 C 190.421875 272.4375 191.210938 273.496094 191.945312 274.597656 C 192.679688 275.699219 193.359375 276.832031 193.984375 278 C 194.609375 279.167969 195.175781 280.363281 195.679688 281.585938 C 196.1875 282.808594 196.632812 284.054688 197.015625 285.320312 C 197.402344 286.585938 197.722656 287.867188 197.980469 289.167969 C 198.238281 290.464844 198.433594 291.773438 198.5625 293.089844 C 198.691406 294.40625 198.757812 295.726562 198.757812 297.050781 L 198.757812 297.082031 C 198.757812 298.40625 198.691406 299.726562 198.5625 301.042969 C 198.433594 302.359375 198.238281 303.667969 197.980469 304.964844 C 197.722656 306.265625 197.402344 307.546875 197.015625 308.8125 C 196.632812 310.082031 196.1875 311.324219 195.679688 312.546875 C 195.175781 313.769531 194.609375 314.964844 193.984375 316.132812 C 193.359375 317.300781 192.679688 318.433594 191.945312 319.535156 C 191.210938 320.636719 190.421875 321.699219 189.582031 322.71875 C 188.742188 323.742188 187.855469 324.722656 186.917969 325.660156 C 185.984375 326.59375 185.003906 327.484375 183.980469 328.324219 C 182.957031 329.164062 181.894531 329.949219 180.796875 330.683594 C 179.695312 331.421875 178.5625 332.101562 177.394531 332.722656 C 176.226562 333.347656 175.03125 333.914062 173.808594 334.421875 C 172.585938 334.925781 171.339844 335.371094 170.074219 335.757812 C 168.808594 336.140625 167.523438 336.460938 166.226562 336.71875 C 164.929688 336.976562 163.621094 337.171875 162.304688 337.300781 C 160.988281 337.433594 159.667969 337.496094 158.34375 337.496094 L 158.3125 337.496094 C 156.988281 337.496094 155.667969 337.433594 154.351562 337.300781 C 153.035156 337.171875 151.726562 336.976562 150.425781 336.71875 C 149.128906 336.460938 147.847656 336.140625 146.582031 335.757812 C 145.3125 335.371094 144.070312 334.925781 142.847656 334.421875 C 141.625 333.914062 140.429688 333.347656 139.261719 332.722656 C 138.09375 332.101562 136.960938 331.421875 135.859375 330.683594 C 134.757812 329.949219 133.695312 329.164062 132.671875 328.324219 C 131.648438 327.484375 130.671875 326.59375 129.734375 325.660156 C 128.800781 324.722656 127.910156 323.742188 127.070312 322.71875 C 126.230469 321.699219 125.445312 320.636719 124.707031 319.535156 C 123.972656 318.433594 123.292969 317.300781 122.667969 316.132812 C 122.046875 314.964844 121.480469 313.769531 120.972656 312.546875 C 120.46875 311.324219 120.023438 310.082031 119.636719 308.8125 C 119.253906 307.546875 118.933594 306.265625 118.675781 304.964844 C 118.414062 303.667969 118.222656 302.359375 118.09375 301.042969 C 117.960938 299.726562 117.898438 298.40625 117.898438 297.082031 L 117.898438 297.050781 C 117.898438 295.726562 117.960938 294.40625 118.09375 293.089844 C 118.222656 291.773438 118.414062 290.464844 118.675781 289.167969 C 118.933594 287.867188 119.253906 286.585938 119.636719 285.320312 C 120.023438 284.054688 120.46875 282.808594 120.972656 281.585938 C 121.480469 280.363281 122.046875 279.167969 122.667969 278 C 123.292969 276.832031 123.972656 275.699219 124.707031 274.597656 C 125.445312 273.496094 126.230469 272.4375 127.070312 271.414062 C 127.910156 270.390625 128.800781 269.410156 129.734375 268.472656 C 130.671875 267.539062 131.648438 266.652344 132.671875 265.8125 C 133.695312 264.972656 134.757812 264.183594 135.859375 263.449219 C 136.960938 262.710938 138.09375 262.03125 139.261719 261.410156 C 140.429688 260.785156 141.625 260.21875 142.847656 259.714844 C 144.070312 259.207031 145.3125 258.761719 146.582031 258.378906 C 147.847656 257.992188 149.128906 257.671875 150.425781 257.414062 C 151.726562 257.15625 153.035156 256.960938 154.351562 256.832031 C 155.667969 256.703125 156.988281 256.636719 158.3125 256.636719 Z M 158.3125 256.636719 " fill-opacity="1" fill-rule="evenodd"/></g><path fill="#e64c6e" d="M 166.921875 312.636719 L 175.835938 312.636719 C 177.714844 312.636719 179.261719 314.179688 179.261719 316.089844 C 179.261719 317.972656 177.714844 319.519531 175.835938 319.519531 L 166.921875 319.519531 C 166.5 320.941406 165.164062 321.941406 163.648438 321.941406 L 153.007812 321.941406 C 151.460938 321.941406 150.15625 320.941406 149.703125 319.519531 L 140.820312 319.519531 C 138.910156 319.519531 137.363281 317.972656 137.363281 316.089844 C 137.363281 314.179688 138.910156 312.636719 140.820312 312.636719 L 149.703125 312.636719 C 150.125 311.300781 151.308594 310.363281 152.703125 310.238281 L 134.996094 310.238281 C 131.996094 310.238281 129.507812 307.753906 129.507812 304.753906 C 129.507812 295.71875 129.507812 286.683594 129.507812 277.679688 C 129.507812 274.644531 131.996094 272.191406 134.996094 272.191406 L 181.628906 272.191406 C 184.660156 272.191406 187.113281 274.644531 187.113281 277.679688 C 187.113281 286.683594 187.113281 295.71875 187.113281 304.753906 C 187.113281 307.753906 184.660156 310.238281 181.628906 310.238281 L 163.953125 310.238281 C 165.347656 310.363281 166.527344 311.300781 166.921875 312.636719 Z M 166.921875 312.636719 " fill-opacity="1" fill-rule="evenodd"/><path fill="#fefefe" d="M 166.527344 313.152344 L 175.835938 313.152344 C 177.441406 313.152344 178.777344 314.453125 178.777344 316.089844 C 178.777344 317.699219 177.441406 319.003906 175.835938 319.003906 L 166.527344 319.003906 C 166.285156 320.398438 165.101562 321.425781 163.648438 321.425781 L 153.007812 321.425781 C 151.550781 321.425781 150.339844 320.398438 150.097656 319.003906 L 140.820312 319.003906 C 139.179688 319.003906 137.878906 317.699219 137.878906 316.089844 C 137.878906 314.453125 139.179688 313.152344 140.820312 313.152344 L 150.097656 313.152344 C 150.339844 311.757812 151.550781 310.726562 153.007812 310.726562 L 155.402344 310.726562 L 155.402344 309.726562 L 134.996094 309.726562 C 132.269531 309.726562 130.023438 307.480469 130.023438 304.753906 C 130.023438 294.839844 130.023438 287.5625 130.023438 277.679688 C 130.023438 274.917969 132.269531 272.675781 134.996094 272.675781 L 181.628906 272.675781 C 184.386719 272.675781 186.628906 274.917969 186.628906 277.679688 C 186.628906 287.5625 186.628906 294.839844 186.628906 304.753906 C 186.628906 307.480469 184.386719 309.726562 181.628906 309.726562 L 161.253906 309.726562 L 161.253906 310.726562 L 163.648438 310.726562 C 165.101562 310.726562 166.285156 311.757812 166.527344 313.152344 Z M 166.527344 313.152344 " fill-opacity="1" fill-rule="evenodd"/><path fill="#e64c6e" d="M 181.628906 289.925781 L 134.996094 289.925781 C 133.601562 289.925781 132.449219 288.773438 132.449219 287.378906 L 132.449219 277.679688 C 132.449219 276.253906 133.601562 275.101562 134.996094 275.101562 L 181.628906 275.101562 C 183.050781 275.101562 184.203125 276.253906 184.203125 277.679688 L 184.203125 287.378906 C 184.203125 288.773438 183.050781 289.925781 181.628906 289.925781 Z M 138.605469 285.894531 C 138.332031 285.894531 138.089844 285.683594 138.089844 285.378906 L 138.089844 279.648438 C 138.089844 279.375 138.332031 279.132812 138.605469 279.132812 C 138.878906 279.132812 139.089844 279.375 139.089844 279.648438 L 139.089844 285.378906 C 139.089844 285.683594 138.878906 285.894531 138.605469 285.894531 Z M 164.285156 283.015625 L 152.371094 283.015625 C 152.097656 283.015625 151.855469 282.800781 151.855469 282.527344 C 151.855469 282.257812 152.097656 282.015625 152.371094 282.015625 L 164.285156 282.015625 C 164.558594 282.015625 164.769531 282.257812 164.769531 282.527344 C 164.769531 282.800781 164.558594 283.015625 164.285156 283.015625 Z M 175.167969 285.894531 C 173.320312 285.894531 171.804688 284.378906 171.804688 282.527344 C 171.804688 280.648438 173.320312 279.132812 175.167969 279.132812 C 177.050781 279.132812 178.566406 280.648438 178.566406 282.527344 C 178.566406 284.378906 177.050781 285.894531 175.167969 285.894531 Z M 175.167969 280.164062 C 173.867188 280.164062 172.804688 281.226562 172.804688 282.527344 C 172.804688 283.832031 173.867188 284.894531 175.167969 284.894531 C 176.472656 284.894531 177.535156 283.832031 177.535156 282.527344 C 177.535156 281.226562 176.472656 280.164062 175.167969 280.164062 Z M 146.667969 284.804688 C 146.398438 284.804688 146.15625 284.589844 146.15625 284.289062 L 146.15625 280.742188 C 146.15625 280.46875 146.398438 280.226562 146.667969 280.226562 C 146.941406 280.226562 147.183594 280.46875 147.183594 280.742188 L 147.183594 284.289062 C 147.183594 284.589844 146.941406 284.804688 146.667969 284.804688 Z M 142.636719 285.894531 C 142.363281 285.894531 142.121094 285.683594 142.121094 285.378906 L 142.121094 279.648438 C 142.121094 279.375 142.363281 279.132812 142.636719 279.132812 C 142.910156 279.132812 143.121094 279.375 143.121094 279.648438 L 143.121094 285.378906 C 143.121094 285.683594 142.910156 285.894531 142.636719 285.894531 Z M 142.636719 285.894531 " fill-opacity="1" fill-rule="evenodd"/><path fill="#e64c6e" d="M 178.078125 293.472656 L 138.574219 293.472656 C 138.273438 293.472656 138.058594 293.261719 138.058594 292.988281 L 138.058594 289.441406 C 138.058594 289.136719 138.273438 288.925781 138.574219 288.925781 L 178.078125 288.925781 C 178.351562 288.925781 178.59375 289.136719 178.59375 289.441406 L 178.59375 292.988281 C 178.59375 293.261719 178.351562 293.472656 178.078125 293.472656 Z M 139.058594 292.472656 L 177.5625 292.472656 L 177.5625 289.925781 L 139.058594 289.925781 Z M 139.058594 292.472656 " fill-opacity="1" fill-rule="evenodd"/><path fill="#e64c6e" d="M 181.628906 307.300781 L 134.996094 307.300781 C 133.601562 307.300781 132.449219 306.148438 132.449219 304.753906 L 132.449219 295.019531 C 132.449219 293.625 133.601562 292.472656 134.996094 292.472656 L 181.628906 292.472656 C 183.050781 292.472656 184.203125 293.625 184.203125 295.019531 L 184.203125 304.753906 C 184.203125 306.148438 183.050781 307.300781 181.628906 307.300781 Z M 164.285156 300.386719 L 152.371094 300.386719 C 152.097656 300.386719 151.855469 300.175781 151.855469 299.902344 C 151.855469 299.597656 152.097656 299.386719 152.371094 299.386719 L 164.285156 299.386719 C 164.558594 299.386719 164.769531 299.597656 164.769531 299.902344 C 164.769531 300.175781 164.558594 300.386719 164.285156 300.386719 Z M 175.167969 303.265625 C 173.320312 303.265625 171.804688 301.75 171.804688 299.902344 C 171.804688 298.023438 173.320312 296.507812 175.167969 296.507812 C 177.050781 296.507812 178.566406 298.023438 178.566406 299.902344 C 178.566406 301.75 177.050781 303.265625 175.167969 303.265625 Z M 175.167969 297.507812 C 173.867188 297.507812 172.804688 298.566406 172.804688 299.902344 C 172.804688 301.207031 173.867188 302.265625 175.167969 302.265625 C 176.472656 302.265625 177.535156 301.207031 177.535156 299.902344 C 177.535156 298.566406 176.472656 297.507812 175.167969 297.507812 Z M 146.667969 302.175781 C 146.398438 302.175781 146.15625 301.933594 146.15625 301.660156 L 146.15625 298.113281 C 146.15625 297.839844 146.398438 297.597656 146.667969 297.597656 C 146.941406 297.597656 147.183594 297.839844 147.183594 298.113281 L 147.183594 301.660156 C 147.183594 301.933594 146.941406 302.175781 146.667969 302.175781 Z M 142.636719 303.265625 C 142.363281 303.265625 142.121094 303.023438 142.121094 302.75 L 142.121094 297.019531 C 142.121094 296.75 142.363281 296.507812 142.636719 296.507812 C 142.910156 296.507812 143.121094 296.75 143.121094 297.019531 L 143.121094 302.75 C 143.121094 303.023438 142.910156 303.265625 142.636719 303.265625 Z M 138.605469 303.265625 C 138.332031 303.265625 138.089844 303.023438 138.089844 302.75 L 138.089844 297.019531 C 138.089844 296.75 138.332031 296.507812 138.605469 296.507812 C 138.878906 296.507812 139.089844 296.75 139.089844 297.019531 L 139.089844 302.75 C 139.089844 303.023438 138.878906 303.265625 138.605469 303.265625 Z M 138.605469 303.265625 " fill-opacity="1" fill-rule="evenodd"/><path fill="#e64c6e" d="M 158.3125 314.152344 C 158.039062 314.152344 157.828125 313.9375 157.828125 313.636719 L 157.828125 306.785156 C 157.828125 306.511719 158.039062 306.296875 158.3125 306.296875 C 158.617188 306.296875 158.828125 306.511719 158.828125 306.785156 L 158.828125 313.636719 C 158.828125 313.9375 158.617188 314.152344 158.3125 314.152344 Z M 158.3125 314.152344 " fill-opacity="1" fill-rule="evenodd"/><path fill="#e64c6e" d="M 163.648438 319.003906 L 153.007812 319.003906 C 152.734375 319.003906 152.492188 318.789062 152.492188 318.515625 L 152.492188 313.636719 C 152.492188 313.363281 152.734375 313.152344 153.007812 313.152344 L 163.648438 313.152344 C 163.921875 313.152344 164.164062 313.363281 164.164062 313.636719 L 164.164062 318.515625 C 164.164062 318.789062 163.921875 319.003906 163.648438 319.003906 Z M 163.648438 319.003906 " fill-opacity="1" fill-rule="evenodd"/><path fill="#e64c6e" d="M 175.835938 316.578125 L 163.648438 316.578125 C 163.375 316.578125 163.132812 316.363281 163.132812 316.089844 C 163.132812 315.789062 163.375 315.578125 163.648438 315.578125 L 175.835938 315.578125 C 176.109375 315.578125 176.351562 315.789062 176.351562 316.089844 C 176.351562 316.363281 176.109375 316.578125 175.835938 316.578125 Z M 153.007812 316.578125 L 140.820312 316.578125 C 140.546875 316.578125 140.304688 316.363281 140.304688 316.089844 C 140.304688 315.789062 140.546875 315.578125 140.820312 315.578125 L 153.007812 315.578125 C 153.277344 315.578125 153.492188 315.789062 153.492188 316.089844 C 153.492188 316.363281 153.277344 316.578125 153.007812 316.578125 Z M 153.007812 316.578125 " fill-opacity="1" fill-rule="evenodd"/><path stroke-linecap="butt" transform="matrix(-0.75, -0.000000001309, 0.000000001309, -0.75, 256.627663, 298.568534)" fill="none" stroke-linejoin="miter" d="M -0.00165787 1.997629 L 75.170222 1.997629 " stroke="#e11d48" stroke-width="4" stroke-opacity="1" stroke-miterlimit="4"/><path stroke-linecap="round" transform="matrix(-0.75, -0.000000001309, 0.000000001309, -0.75, 256.627663, 298.568534)" fill="none" stroke-linejoin="round" d="M 67.170222 -4.002372 L 75.170222 1.997629 L 67.170222 7.997629 " stroke="#e11d48" stroke-width="4" stroke-opacity="1" stroke-miterlimit="4"/></svg>