<svg xmlns="http://www.w3.org/2000/svg" xmlns:xlink="http://www.w3.org/1999/xlink" width="500" zoomAndPan="magnify" viewBox="0 0 375 374.999991" height="500" preserveAspectRatio="xMidYMid meet" version="1.0"><defs><clipPath id="06d7db17ed"><path d="M 145 270 L 230 270 L 230 302.660156 L 145 302.660156 Z M 145 270 " clip-rule="nonzero"/></clipPath><clipPath id="0dc383d0cf"><path d="M 37.5 109 L 337.5 109 L 337.5 276 L 37.5 276 Z M 37.5 109 " clip-rule="nonzero"/></clipPath><clipPath id="90d413d442"><path d="M 37.5 72.410156 L 337.5 72.410156 L 337.5 250 L 37.5 250 Z M 37.5 72.410156 " clip-rule="nonzero"/></clipPath></defs><path fill="#ffffff" d="M 45.898438 80.609375 L 329.074219 80.609375 L 329.074219 271.871094 L 45.898438 271.871094 Z M 45.898438 80.609375 " fill-opacity="1" fill-rule="nonzero"/><g clip-path="url(#06d7db17ed)"><path fill="#000000" d="M 229.851562 302.566406 L 145.125 302.566406 L 154.789062 270.429688 L 220.1875 270.429688 Z M 229.851562 302.566406 " fill-opacity="1" fill-rule="nonzero"/></g><g clip-path="url(#0dc383d0cf)"><path fill="#e11d48" d="M 37.699219 249.832031 L 37.699219 275.734375 L 337.277344 275.734375 L 337.277344 249.832031 L 283.296875 238.773438 L 82.378906 239.988281 Z M 187.488281 268.292969 C 184.449219 268.292969 181.980469 265.824219 181.980469 262.785156 C 181.980469 259.742188 184.449219 257.273438 187.488281 257.273438 C 190.527344 257.273438 192.996094 259.742188 192.996094 262.785156 C 192.996094 265.824219 190.527344 268.292969 187.488281 268.292969 Z M 271.226562 128.296875 L 227.097656 128.296875 L 227.097656 109.273438 L 271.226562 109.273438 Z M 217.808594 109.273438 L 103.75 109.273438 L 103.75 212.972656 L 217.816406 212.972656 L 217.816406 109.273438 Z M 192.417969 150.65625 L 139.464844 165.703125 L 139.464844 131.144531 L 192.417969 131.144531 Z M 192.417969 150.65625 " fill-opacity="1" fill-rule="nonzero"/></g><path fill="#ffc875" d="M 271.226562 136.738281 L 271.226562 155.757812 L 227.097656 155.757812 L 227.097656 136.738281 Z M 159.015625 148.121094 L 154.578125 141.734375 C 153.476562 140.144531 151.664062 139.199219 149.730469 139.199219 L 129.140625 139.199219 L 129.140625 191.09375 L 192.417969 191.09375 L 192.417969 150.652344 L 163.867188 150.652344 C 161.929688 150.65625 160.121094 149.710938 159.015625 148.121094 Z M 159.015625 148.121094 " fill-opacity="1" fill-rule="nonzero"/><g clip-path="url(#90d413d442)"><path fill="#000000" d="M 37.699219 72.410156 L 37.699219 249.832031 L 337.277344 249.832031 L 337.277344 72.410156 Z M 322.34375 226.21875 C 322.34375 231.097656 318.390625 235.050781 313.511719 235.050781 L 61.464844 235.050781 C 56.585938 235.050781 52.632812 231.097656 52.632812 226.21875 L 52.632812 96.023438 C 52.632812 91.144531 56.585938 87.191406 61.464844 87.191406 L 313.511719 87.191406 C 318.390625 87.191406 322.34375 91.144531 322.34375 96.023438 Z M 227.097656 164.199219 L 271.226562 164.199219 L 271.226562 212.96875 L 227.097656 212.96875 Z M 227.097656 164.199219 " fill-opacity="1" fill-rule="nonzero"/></g></svg>